<svg width="40" height="40" viewBox="0 0 40 40" fill="none" xmlns="http://www.w3.org/2000/svg">
<path d="M20.7776 35.7558C25.7792 34.7696 32.2464 31.2265 32.2464 22.0657C32.2464 13.7303 26.0496 8.17865 21.5936 5.6281C20.6032 5.06096 19.4464 5.80612 19.4464 6.93252V9.81232C19.4464 12.084 18.4768 16.2304 15.7824 17.9555C14.4064 18.8361 12.9184 17.5175 12.752 15.9106L12.6144 14.5905C12.4544 13.056 10.8672 12.125 9.62239 13.0608C7.38399 14.7386 5.04639 17.6845 5.04639 22.0641C5.04639 33.2667 13.5088 36.0693 17.7392 36.0693C17.9867 36.0693 18.2448 36.0614 18.5136 36.0457C16.424 35.8708 13.0464 34.5947 13.0464 30.4672C13.0464 27.2377 15.4384 25.0558 17.256 23.9924C17.7456 23.7088 18.3168 24.079 18.3168 24.6383V25.5678C18.3168 26.2767 18.5968 27.3873 19.2608 28.1467C20.0128 29.0068 21.1152 28.1057 21.2032 26.9746C21.232 26.6185 21.5968 26.3917 21.9104 26.5713C22.936 27.1621 24.2464 28.4224 24.2464 30.4672C24.2464 33.6936 22.44 35.1776 20.7776 35.7558Z" fill="currentColor"/>
</svg>
