<svg width="25" height="25" viewBox="0 0 25 25" fill="none" xmlns="http://www.w3.org/2000/svg">
<mask id="mask0_1_73" style="mask-type:luminance" maskUnits="userSpaceOnUse" x="0" y="0" width="25" height="25">
<path d="M24.0064 0.00683594H0V24.0068H24.0064V0.00683594Z" fill="white"/>
</mask>
<g mask="url(#mask0_1_73)">
<path d="M11.9968 0.00683594C9.62258 0.00683627 7.30168 0.710982 5.32762 2.03019C3.35357 3.34941 1.81511 5.22442 0.906801 7.41809C-0.00150496 9.61176 -0.238923 12.0256 0.224741 14.3541C0.688406 16.6827 1.83229 18.8214 3.51161 20.4998C5.19092 22.1783 7.33022 23.321 9.65904 23.7834C11.9878 24.2458 14.4016 24.0072 16.5948 23.0977C18.7879 22.1883 20.6621 20.6488 21.9802 18.674C23.2984 16.6993 24.0013 14.3779 24 12.0037C23.9967 8.82184 22.7307 5.7714 20.4802 3.52211C18.2297 1.27282 15.1786 0.00852749 11.9968 0.00683594ZM11.9968 22.7285C9.87567 22.7285 7.8021 22.0996 6.03839 20.9211C4.27469 19.7426 2.90009 18.0676 2.08835 16.1079C1.27661 14.1482 1.06425 11.9918 1.47807 9.91133C1.89189 7.8309 2.91331 5.91992 4.41322 4.42002C5.91312 2.92011 7.82422 1.89865 9.90465 1.48483C11.985 1.07101 14.1413 1.2834 16.101 2.09515C18.0608 2.90689 19.7358 4.28153 20.9143 6.04523C22.0928 7.80893 22.7217 9.88247 22.7217 12.0037C22.7234 13.4135 22.4474 14.8098 21.9092 16.1128C21.3711 17.4158 20.5814 18.6001 19.5855 19.5978C18.5895 20.5956 17.4066 21.3873 16.1045 21.9278C14.8024 22.4683 13.4066 22.7469 11.9968 22.7477V22.7285Z" fill="black"/>
<path d="M12.4954 17.7435H11.7156C11.6529 17.7404 11.5902 17.7508 11.5318 17.774C11.4734 17.7971 11.4205 17.8325 11.3769 17.8777C11.2919 17.9749 11.2464 18.1002 11.2491 18.2292V19.0282C11.2454 19.0904 11.2549 19.1528 11.277 19.2111C11.2991 19.2694 11.3334 19.3223 11.3775 19.3664C11.4216 19.4105 11.4745 19.4447 11.5328 19.4669C11.5911 19.489 11.6534 19.4985 11.7156 19.4947H12.5146C12.6418 19.4984 12.7656 19.4526 12.8597 19.3669C12.9068 19.3244 12.9439 19.2719 12.9682 19.2134C12.9925 19.1548 13.0035 19.0915 13.0003 19.0282V18.2292C13.0024 18.1641 12.991 18.0993 12.9668 18.0388C12.9426 17.9783 12.9061 17.9235 12.8597 17.8777C12.8122 17.8305 12.755 17.7941 12.6922 17.7709C12.6293 17.7477 12.5622 17.7384 12.4954 17.7435Z" fill="black"/>
<path d="M14.5278 5.02386C13.7759 4.66732 12.9501 4.49424 12.1182 4.51891C11.3001 4.50479 10.4915 4.69596 9.76618 5.07497C9.08982 5.42707 8.51879 5.95189 8.11089 6.59614C7.70153 7.22645 7.47986 7.96018 7.47174 8.71172C7.46875 8.76858 7.47794 8.82543 7.49889 8.87837C7.51985 8.93131 7.55205 8.97912 7.59314 9.01854C7.68143 9.09567 7.79552 9.13674 7.91272 9.13358H8.25148C8.31497 9.13702 8.37838 9.12778 8.43826 9.10643C8.49815 9.08508 8.55325 9.05204 8.60024 9.00921C8.64723 8.96639 8.68532 8.91465 8.71212 8.85699C8.73892 8.79934 8.75398 8.7369 8.75643 8.67337C8.83842 7.81045 9.24493 7.01088 9.89398 6.43635C10.5307 5.95513 11.3145 5.70901 12.112 5.7397C12.8914 5.71979 13.6576 5.94319 14.3042 6.37885C14.6014 6.57025 14.8444 6.83474 15.01 7.14697C15.1756 7.4592 15.2583 7.80871 15.2502 8.16206C15.2585 8.63056 15.1223 9.09027 14.8602 9.4787C14.4761 10.0096 14.0485 10.5078 13.5819 10.9679C13.1153 11.4473 12.7446 11.8563 12.4634 12.2015C12.1685 12.5704 11.9276 12.9792 11.7476 13.4159C11.5445 13.9102 11.4444 14.4409 11.4537 14.9754V15.9852C11.4501 16.0469 11.459 16.1088 11.4799 16.167C11.5007 16.2252 11.5331 16.2786 11.5751 16.324C11.6204 16.3665 11.6736 16.3996 11.7317 16.4216C11.7898 16.4435 11.8517 16.4538 11.9138 16.4518H12.2718C12.334 16.4555 12.3962 16.446 12.4545 16.4239C12.5128 16.4017 12.5658 16.3675 12.6099 16.3234C12.654 16.2793 12.6883 16.2264 12.7104 16.1681C12.7325 16.1098 12.7421 16.0474 12.7384 15.9852V14.9754C12.728 14.4452 12.8771 13.9241 13.1665 13.4798C13.5616 12.9147 14.0042 12.3844 14.4896 11.8947C15.046 11.3328 15.5468 10.7185 15.9851 10.0603C16.3356 9.48361 16.5111 8.81747 16.4901 8.14291C16.4914 7.50471 16.3214 6.87784 15.9979 6.32771C15.6413 5.76265 15.1314 5.3105 14.5278 5.02386Z" fill="black"/>
</g>
</svg>
