<svg width="72" height="19" viewBox="0 0 72 19" fill="none" xmlns="http://www.w3.org/2000/svg">
<g clip-path="url(#clip0_1_96)">
<path d="M43.5522 5.28393C42.4058 5.28393 41.5054 5.5298 40.6045 6.02061C40.6045 3.40061 40.6045 1.02649 40.6868 0.208008L35.1995 1.19009V1.68137L35.7727 1.76317C36.509 1.92678 36.7559 2.33578 36.9181 3.31881C37.0832 5.28393 37.0004 15.7644 36.9181 17.4841C38.3922 17.8118 39.9486 18.0577 41.5049 18.0577C45.8453 18.0577 48.4658 15.3554 48.4658 11.0975C48.4658 7.74079 46.3367 5.28393 43.5522 5.28393ZM41.6685 17.1564C41.3408 17.1564 40.9308 17.1564 40.6858 17.0751C40.6035 15.9289 40.5222 11.0975 40.6035 6.84004C41.0949 6.67596 41.4222 6.59416 41.8322 6.59416C43.6349 6.59416 44.6177 8.72288 44.6177 11.3424C44.6172 14.6187 43.3885 17.1564 41.6685 17.1564ZM14.5615 0.535212H0.147949V1.2719L0.96704 1.3537C2.0311 1.5173 2.44112 2.17218 2.60427 3.72782C2.85066 6.67549 2.76838 11.9982 2.60427 14.5355C2.44065 16.0916 2.03157 16.8288 0.96704 16.9096L0.147949 17.0742V17.729H9.40197V17.0742L8.41925 16.9096C7.35472 16.8283 6.94517 16.0916 6.78154 14.5355C6.69925 13.4707 6.61744 11.7509 6.61744 9.62269L8.58288 9.70449C9.81151 9.70449 10.3842 10.6871 10.6301 12.0786H11.3674V6.26696H10.6301C10.3837 7.65899 9.81151 8.64108 8.58288 8.64108L6.61791 8.72335C6.61791 5.93928 6.69973 3.31928 6.78201 1.76365H9.64789C11.8597 1.76365 13.0061 3.15521 13.8247 5.61208L14.6438 5.3662L14.5615 0.535212Z" fill="black"/>
<path d="M19.2295 5.11967C23.3245 5.11967 25.3717 7.90374 25.3717 11.5881C25.3717 15.1088 23.0785 18.0575 18.9836 18.0575C14.889 18.0575 12.8418 15.2729 12.8418 11.5881C12.8418 8.06734 15.1345 5.11967 19.2295 5.11967ZM18.9836 5.93862C17.1817 5.93862 16.6904 8.39502 16.6904 11.5881C16.6904 14.6994 17.5095 17.2376 19.1477 17.2376C21.0299 17.2376 21.5222 14.7812 21.5222 11.5881C21.5222 8.47682 20.704 5.93862 18.9836 5.93862ZM49.5297 11.6704C49.5297 8.31321 51.6587 5.11967 55.8355 5.11967C59.2741 5.11967 60.9128 7.65833 60.9128 11.015H53.2964C53.2142 14.0445 54.6882 16.2555 57.6369 16.2555C58.9473 16.2555 59.6023 15.9287 60.4219 15.3552L60.7487 15.7642C59.9296 16.9104 58.1282 18.0575 55.8355 18.0575C52.1501 18.057 49.5297 15.437 49.5297 11.6704ZM53.2964 10.1147L57.1455 10.0325C57.1455 8.39502 56.8996 5.93862 55.5078 5.93862C54.116 5.93862 53.3778 8.23094 53.2964 10.1147ZM70.6596 5.77502C69.6768 5.36507 68.3669 5.11967 66.8928 5.11967C63.8633 5.11967 61.9787 6.92071 61.9787 9.0499C61.9787 11.1791 63.3696 12.0794 65.3374 12.7347C67.3841 13.4709 67.9578 14.0445 67.9578 15.027C67.9578 16.0096 67.2205 16.9099 65.9101 16.9099C64.3546 16.9099 63.2073 16.0096 62.3069 13.5527L61.7333 13.7173L61.8155 17.3198C62.7983 17.7288 64.5996 18.057 66.156 18.057C69.3501 18.057 71.3978 16.4186 71.3978 13.8809C71.3978 12.1612 70.4964 11.1791 68.3673 10.3597C66.0737 9.45937 65.2555 8.88629 65.2555 7.82146C65.2555 6.7571 65.9938 6.01995 66.9765 6.01995C68.4496 6.01995 69.4323 6.92071 70.1706 9.1317L70.7433 8.9681L70.6596 5.77502ZM36.0175 5.44734C34.6257 4.62933 32.1685 5.03786 30.8585 7.98601L30.9398 5.12014L25.4535 6.1845V6.67578L26.0267 6.75758C26.7644 6.83985 27.0912 7.24886 27.1735 8.31369C27.3371 10.2788 27.2553 13.7182 27.1735 15.4375C27.0912 16.4191 26.7644 16.9104 26.0267 16.9926L25.4535 17.0749V17.7298H33.0694V17.0749L32.0866 16.9926C31.268 16.9104 31.0221 16.4191 30.9398 15.4375C30.7762 13.8814 30.7762 10.7701 30.8585 8.80497C31.2675 8.23141 33.0694 7.74061 34.7071 8.80497L36.0175 5.44734Z" fill="black"/>
</g>
<defs>
<clipPath id="clip0_1_96">
<rect width="72" height="19" fill="white"/>
</clipPath>
</defs>
</svg>
