<svg width="40" height="40" viewBox="0 0 40 40" fill="none" xmlns="http://www.w3.org/2000/svg">
<path fill-rule="evenodd" clip-rule="evenodd" d="M17 28.3327C17.0001 28.6622 17.1174 28.9844 17.3372 29.2584C17.557 29.5325 17.8693 29.746 18.2347 29.8722C18.6001 29.9983 19.0022 30.0313 19.3901 29.967C19.7781 29.9027 20.1344 29.7441 20.4141 29.511L30.4144 21.1774C30.7894 20.8648 31 20.441 31 19.999C31 19.5571 30.7894 19.1332 30.4144 18.8206L20.4141 10.487C20.1344 10.254 19.7781 10.0953 19.3901 10.031C19.0022 9.96675 18.6001 9.99975 18.2347 10.1259C17.8693 10.252 17.557 10.4656 17.3372 10.7396C17.1174 11.0136 17.0001 11.3358 17 11.6654L17 28.3327Z" fill="currentColor"/>
</svg>
