<svg width="40" height="40" viewBox="0 0 40 40" fill="none" xmlns="http://www.w3.org/2000/svg">
<g clip-path="url(#clip0_1_135)">
<path d="M11.6003 34C11.305 34 11.0171 33.907 10.7779 33.7338C10.357 33.4285 10.14 32.915 10.2144 32.4003L11.5146 23.2951L6.40995 18.1904C6.03912 17.8195 5.90673 17.2724 6.06696 16.7729C6.22674 16.2739 6.65244 15.9063 7.16943 15.8209L14.8658 14.5364L18.7472 6.77524C18.9877 6.30021 19.4747 6.00057 20.0072 6C20.5401 6.00292 21.0252 6.30822 21.2584 6.78749L24.9735 14.4209L32.8449 15.8227C33.3582 15.9139 33.7783 16.2827 33.9351 16.7799C34.0924 17.2779 33.9587 17.822 33.5886 18.1904L28.484 23.2951L29.7859 32.4003C29.8598 32.9179 29.6391 33.4335 29.2137 33.7373C28.79 34.0417 28.232 34.0849 27.7665 33.8493L20.0981 29.9643L12.2198 33.8546C12.0274 33.9504 11.8153 34 11.6003 34ZM14.2428 28.9528L20.1174 26.0514L21.6784 26.8424L25.7505 28.9038L24.7705 22.0579L26.0095 20.8206L28.267 18.5632L22.6076 17.5552L21.8271 15.9539L19.9722 12.146L17.2002 17.6952L15.4415 17.9892L11.7701 18.6017L15.2263 22.0579L14.9795 23.7904L14.2428 28.9528Z" fill="#FDB600"/>
</g>
<defs>
<clipPath id="clip0_1_135">
<rect width="40" height="40" fill="white"/>
</clipPath>
</defs>
</svg>
