<svg width="40" height="40" viewBox="0 0 40 40" fill="none" xmlns="http://www.w3.org/2000/svg">
<path d="M11.6003 33.9999C11.305 33.9999 11.0171 33.9069 10.7779 33.7337C10.357 33.4283 10.14 32.9149 10.2144 32.4003L11.5146 23.2951L6.40996 18.1904C6.03912 17.8194 5.90673 17.2723 6.06696 16.7729C6.22674 16.2739 6.65244 15.9063 7.16944 15.8209L14.8658 14.5364L18.7472 6.77524C18.9877 6.3002 19.4747 6.00056 20.0072 6C20.5401 6.00292 21.0252 6.30822 21.2584 6.7875L24.9736 14.4209L32.8448 15.8227C33.3582 15.9139 33.7782 16.2827 33.935 16.7799C34.0924 17.2779 33.9588 17.822 33.5886 18.1904L28.484 23.2951L29.786 32.4003C29.8598 32.9177 29.6392 33.4333 29.2136 33.7373C28.79 34.0417 28.232 34.0849 27.7664 33.8493L20.0982 29.9643L12.2198 33.8545C12.0274 33.9503 11.8153 33.9999 11.6003 33.9999Z" fill="#FDB600"/>
</svg>
