<svg width="40" height="40" viewBox="0 0 40 40" fill="none" xmlns="http://www.w3.org/2000/svg">
<path d="M5.27306 14.9621L4.14506 21.4901C4.07887 21.8727 4.09706 22.2652 4.19838 22.64C4.29969 23.0149 4.48168 23.3631 4.73161 23.6602C4.98154 23.9574 5.29338 24.1964 5.64531 24.3605C5.99724 24.5245 6.38076 24.6097 6.76906 24.6101L15.0603 24.6101C15.2536 24.6103 15.4446 24.6526 15.6199 24.7339C15.7953 24.8153 15.9509 24.9338 16.0758 25.0813C16.2008 25.2288 16.2922 25.4018 16.3437 25.5881C16.3951 25.7745 16.4054 25.9698 16.3739 26.1605L15.3131 32.6325C15.1417 33.6834 15.1907 34.7584 15.4571 35.7893C15.5722 36.2151 15.7928 36.605 16.0984 36.9229C16.4041 37.2409 16.785 37.4767 17.2059 37.6085L17.4379 37.6837C17.962 37.8511 18.5302 37.8122 19.0267 37.5749C19.5707 37.3125 19.9675 36.8341 20.1147 36.2661L20.8763 33.3317C21.1183 32.3978 21.4707 31.496 21.9259 30.6453C22.5915 29.4021 23.6187 28.4053 24.6859 27.4853L26.9899 25.5013C27.3093 25.2253 27.5587 24.8775 27.7178 24.4865C27.8769 24.0955 27.9411 23.6723 27.9051 23.2517L26.6043 8.22292C26.547 7.55854 26.2428 6.93974 25.7517 6.48863C25.2606 6.03751 24.6183 5.78686 23.9515 5.78612L16.5131 5.78612C10.9435 5.78612 6.18986 9.66771 5.27466 14.9621" fill="black"/>
<path opacity="0.5" fill-rule="evenodd" clip-rule="evenodd" d="M32.9563 25.8094C32.6471 25.8229 32.3446 25.7164 32.112 25.5122C31.8795 25.308 31.7348 25.0218 31.7083 24.7134L30.1563 6.7358C30.13 6.46808 30.1586 6.19782 30.2402 5.94151C30.3219 5.68521 30.455 5.44824 30.6313 5.24508C30.8076 5.04192 31.0235 4.87684 31.2657 4.75991C31.508 4.64299 31.7715 4.57667 32.0403 4.56502C32.309 4.55337 32.5774 4.59663 32.8288 4.69215C33.0803 4.78767 33.3097 4.93345 33.5029 5.12058C33.6961 5.30772 33.8492 5.53228 33.9527 5.78056C34.0563 6.02884 34.1081 6.29561 34.1051 6.5646L34.1051 24.611C34.105 24.9203 33.9854 25.2176 33.7714 25.4409C33.5573 25.6642 33.2653 25.7962 32.9563 25.8094Z" fill="black"/>
</svg>
