<svg width="40" height="15" viewBox="0 0 40 15" fill="none" xmlns="http://www.w3.org/2000/svg">
<g clip-path="url(#clip0_1_170)">
<path d="M3.26284 11.7634C5.31234 11.7634 6.5093 10.5148 6.5093 8.36255V0H4.54174V8.26395C4.54174 9.39759 4.13184 9.93976 3.27923 9.93976C2.42663 9.93976 1.96754 9.41402 1.96754 8.31325V5.38882H0V8.41181C0 10.5969 1.13133 11.7634 3.26284 11.7634Z" fill="#212121"/>
<path d="M9.97311 11.714C11.1864 11.714 11.8915 10.9747 12.3342 9.44681H12.6293L12.121 11.5004H13.9902V3.53223H12.121V7.91885C12.121 9.20035 11.5799 9.98897 10.7109 9.98897C9.9895 9.98897 9.64516 9.52893 9.64516 8.59244V3.53223H7.776V9.03606C7.776 10.794 8.51383 11.714 9.97311 11.714Z" fill="#212121"/>
<path d="M17.319 11.501V7.11436C17.319 5.83287 17.8765 5.02781 18.7946 5.02781C19.5653 5.02781 19.9588 5.50429 19.9588 6.44072V11.501H21.8279V5.98072C21.8279 4.23921 21.041 3.30273 19.5325 3.30273C18.2864 3.30273 17.5486 4.05849 17.0894 5.56998H16.7943L17.319 3.53275H15.4498V11.501H17.319Z" fill="#212121"/>
<path d="M25.0545 2.33343V0.230469H23.0869V2.33343H25.0545ZM25.0053 11.501V3.53277H23.1361V11.501H25.0053Z" fill="#212121"/>
<path d="M28.3364 14.4583V11.501L27.8118 9.44733H28.1069C28.5168 10.9424 29.271 11.7146 30.4843 11.7146C31.4025 11.7146 32.1403 11.3367 32.6322 10.6138C33.1241 9.90733 33.37 8.87229 33.37 7.50863C33.37 6.16145 33.1241 5.12641 32.6322 4.41993C32.1403 3.69704 31.4025 3.30273 30.4843 3.30273C29.271 3.30273 28.5168 4.09135 28.1069 5.56998H27.8118L28.3364 3.53275H26.4673V14.4583H28.3364ZM29.8777 10.0552C29.4022 10.0552 29.0087 9.84164 28.7463 9.46376C28.4512 9.05301 28.3036 8.39586 28.3036 7.50863C28.3036 6.63788 28.4512 5.98072 28.7463 5.56998C29.0087 5.1921 29.4022 4.97851 29.8777 4.97851C30.3695 4.97851 30.763 5.1921 31.0254 5.56998C31.3042 5.99716 31.4681 6.63788 31.4681 7.50863C31.4681 8.39586 31.3042 9.03658 31.0254 9.46376C30.763 9.84164 30.3695 10.0552 29.8777 10.0552Z" fill="#212121"/>
<path d="M37.7084 8.43262L37.4919 10.3854L39.4625 9.83213L39.6357 11.1666L37.8384 11.2968L39.0186 12.8699L37.8167 13.51L36.9938 11.8501L36.2684 13.4992L35.0233 12.8699L36.1926 11.2968L34.4061 11.1557L34.6119 9.83213L36.5391 10.3854L36.3226 8.43262H37.7084Z" fill="#212121"/>
</g>
<defs>
<clipPath id="clip0_1_170">
<rect width="40" height="14.4578" fill="currentColor"/>
</clipPath>
</defs>
</svg>
