<svg width="40" height="40" viewBox="0 0 40 40" fill="none" xmlns="http://www.w3.org/2000/svg">
<path d="M34.5684 12.3031C34.4196 12.8531 33.7581 14.2365 32.6334 15.5531C31.8892 30.0198 17.9638 34.7198 8.42113 29.8698C7.11459 28.1198 13.1346 28.8365 15.3342 25.4865C7.01536 21.2031 7.6769 9.75314 9.34728 10.2198C13.2669 15.5365 19.5846 16.0198 20.61 15.5365C20.61 14.3198 20.0973 11.6698 22.9419 9.45314C24.5792 8.2698 28.0027 7.2198 31.0954 10.6031C31.6246 10.9531 32.3854 11.1031 33.5265 10.8531C34.2046 10.5031 35.0977 10.7365 34.6346 11.9531L34.5684 12.3031Z" fill="black" stroke="black" stroke-width="2" stroke-linecap="round" stroke-linejoin="round"/>
</svg>
