<svg width="40" height="40" viewBox="0 0 40 40" fill="none" xmlns="http://www.w3.org/2000/svg">
<path fill-rule="evenodd" clip-rule="evenodd" d="M8.33325 33.3337C7.00717 33.3337 5.7354 32.8069 4.79772 31.8692C3.86004 30.9315 3.33325 29.6597 3.33325 28.3337V11.667C3.33325 10.3409 3.86004 9.06914 4.79772 8.13146C5.7354 7.19378 7.00717 6.66699 8.33325 6.66699H31.6666C32.9927 6.66699 34.2644 7.19378 35.2021 8.13146C36.1398 9.06914 36.6666 10.3409 36.6666 11.667V28.3337C36.6666 29.6597 36.1398 30.9315 35.2021 31.8692C34.2644 32.8069 32.9927 33.3337 31.6666 33.3337H8.33325ZM12.7083 13.7003C12.5385 13.5554 12.3413 13.446 12.1284 13.3787C11.9156 13.3114 11.6914 13.2875 11.4691 13.3085C11.2468 13.3295 11.0311 13.395 10.8346 13.501C10.6381 13.607 10.4649 13.7514 10.3253 13.9256C10.1857 14.0998 10.0826 14.3003 10.0219 14.5152C9.96131 14.73 9.94447 14.9549 9.97241 15.1764C10.0004 15.3979 10.0725 15.6115 10.1846 15.8046C10.2967 15.9976 10.4464 16.1662 10.6249 16.3003L16.8749 21.302C17.7617 22.012 18.8639 22.3989 19.9999 22.3989C21.1359 22.3989 22.2381 22.012 23.1249 21.302L29.3749 16.302C29.5459 16.1652 29.6882 15.9961 29.7938 15.8043C29.8993 15.6125 29.9661 15.4018 29.9902 15.1842C30.0144 14.9666 29.9954 14.7464 29.9345 14.5361C29.8735 14.3258 29.7717 14.1296 29.6349 13.9587C29.4981 13.7877 29.329 13.6454 29.1372 13.5398C28.9454 13.4342 28.7347 13.3675 28.5171 13.3433C28.2995 13.3192 28.0793 13.3381 27.869 13.3991C27.6587 13.4601 27.4625 13.5619 27.2916 13.6987L21.0416 18.6987C20.746 18.9353 20.3786 19.0643 19.9999 19.0643C19.6212 19.0643 19.2539 18.9353 18.9583 18.6987L12.7083 13.7003Z" fill="black"/>
</svg>
