<svg width="40" height="40" viewBox="0 0 40 40" fill="none" xmlns="http://www.w3.org/2000/svg">
<path fill-rule="evenodd" clip-rule="evenodd" d="M20.0137 23.2305L28.096 31.3036C28.5249 31.732 29.1066 31.9727 29.7131 31.9727C30.3196 31.9727 30.9013 31.732 31.3302 31.3036C31.7591 30.8752 32 30.2942 32 29.6884C32 29.0825 31.7591 28.5015 31.3302 28.0731L23.2448 20L31.3287 11.9269C31.5409 11.7147 31.7093 11.4629 31.8241 11.1858C31.9389 10.9087 31.998 10.6118 31.9979 10.3118C31.9979 10.0119 31.9387 9.71498 31.8237 9.43793C31.7087 9.16088 31.5403 8.90916 31.3279 8.69715C31.1155 8.48513 30.8635 8.31697 30.586 8.20227C30.3086 8.08756 30.0113 8.02856 29.711 8.02863C29.4108 8.0287 29.1135 8.08784 28.8361 8.20268C28.5588 8.31751 28.3068 8.48579 28.0945 8.69791L20.0137 16.771L11.9313 8.69791C11.7205 8.47971 11.4683 8.30562 11.1895 8.18582C10.9106 8.06601 10.6107 8.00287 10.3071 8.0001C10.0035 7.99732 9.70248 8.05496 9.42147 8.16964C9.14045 8.28433 8.88512 8.45377 8.67036 8.66808C8.45561 8.88239 8.28574 9.13727 8.17065 9.41785C8.05557 9.69844 7.99758 9.99911 8.00008 10.3023C8.00257 10.6055 8.06549 10.9052 8.18518 11.1839C8.30486 11.4625 8.4789 11.7146 8.69715 11.9253L16.7826 20L8.69868 28.0747C8.48043 28.2854 8.30638 28.5375 8.1867 28.8161C8.06702 29.0948 8.00409 29.3945 8.0016 29.6977C7.99911 30.0009 8.05709 30.3016 8.17218 30.5821C8.28726 30.8627 8.45713 31.1176 8.67189 31.3319C8.88664 31.5462 9.14198 31.7157 9.42299 31.8304C9.704 31.945 10.0051 32.0027 10.3086 31.9999C10.6122 31.9971 10.9121 31.934 11.191 31.8142C11.4699 31.6944 11.722 31.5203 11.9328 31.3021L20.0137 23.2305Z" fill="black"/>
</svg>
