<svg width="40" height="40" viewBox="0 0 40 40" fill="none" xmlns="http://www.w3.org/2000/svg">
<path fill-rule="evenodd" clip-rule="evenodd" d="M10.6671 18.674C10.6671 17.6227 10.8742 16.5817 11.2765 15.6104C11.6789 14.6391 12.2686 13.7566 13.012 13.0132C13.7555 12.2699 14.638 11.6802 15.6094 11.2779C16.5807 10.8756 17.6217 10.6685 18.6731 10.6685C19.7245 10.6685 20.7655 10.8756 21.7369 11.2779C22.7082 11.6802 23.5908 12.2699 24.3342 13.0132C25.0776 13.7566 25.6673 14.6391 26.0697 15.6104C26.472 16.5817 26.6791 17.6227 26.6791 18.674C26.6791 20.7971 25.8356 22.8334 24.3342 24.3347C22.8328 25.836 20.7964 26.6794 18.6731 26.6794C16.5498 26.6794 14.5134 25.836 13.012 24.3347C11.5106 22.8334 10.6671 20.7971 10.6671 18.674ZM18.6731 8C16.9743 8.00024 15.3001 8.4059 13.7897 9.18326C12.2792 9.96062 10.9761 11.0872 9.9886 12.4695C9.00114 13.8517 8.35785 15.4496 8.1122 17.1304C7.86654 18.8113 8.02562 20.5264 8.57621 22.1334C9.12679 23.7404 10.053 25.1928 11.2778 26.3699C12.5026 27.5469 13.9907 28.4147 15.6184 28.9011C17.2461 29.3874 18.9663 29.4783 20.6362 29.1661C22.306 28.854 23.8773 28.1478 25.2193 27.1064L29.7387 31.6255C29.9904 31.8685 30.3274 32.003 30.6773 31.9999C31.0271 31.9969 31.3618 31.8566 31.6092 31.6092C31.8566 31.3618 31.9969 31.0272 31.9999 30.6773C32.003 30.3275 31.8685 29.9905 31.6254 29.7388L27.1061 25.2198C28.3311 23.642 29.0888 21.7521 29.293 19.7651C29.4972 17.778 29.1397 15.7736 28.2612 13.9796C27.3826 12.1857 26.0183 10.6742 24.3233 9.61714C22.6283 8.56006 20.6707 7.99978 18.6731 8ZM18.6731 24.0109C20.0886 24.0109 21.4462 23.4486 22.4472 22.4478C23.4481 21.4469 24.0104 20.0894 24.0104 18.674C24.0104 17.2585 23.4481 15.901 22.4472 14.9001C21.4462 13.8993 20.0886 13.337 18.6731 13.337C17.2576 13.337 15.9 13.8993 14.8991 14.9001C13.8981 15.901 13.3358 17.2585 13.3358 18.674C13.3358 20.0894 13.8981 21.4469 14.8991 22.4478C15.9 23.4486 17.2576 24.0109 18.6731 24.0109Z" fill="black"/>
</svg>
