<svg width="40" height="40" viewBox="0 0 40 40" fill="none" xmlns="http://www.w3.org/2000/svg">
<path d="M15.5611 15.2454L18.9391 8.63656C19.0375 8.4453 19.1887 8.28443 19.3759 8.17199C19.563 8.05956 19.7788 8 19.9988 8C20.2189 8 20.4346 8.05956 20.6218 8.17199C20.809 8.28443 20.9602 8.4453 21.0585 8.63656L24.4365 15.2454L31.9883 16.3115C32.2061 16.3409 32.411 16.4291 32.5797 16.5662C32.7484 16.7033 32.874 16.8836 32.9422 17.0868C33.0104 17.2899 33.0184 17.5075 32.9654 17.7148C32.9124 17.9222 32.8004 18.1108 32.6423 18.2593L27.1787 23.4004L28.4685 30.6635C28.6337 31.5957 27.6195 32.3056 26.7522 31.8661L19.9988 28.4353L13.2441 31.8661C12.3782 32.3069 11.364 31.5957 11.5291 30.6623L12.8189 23.3991L7.35536 18.258C7.19802 18.1095 7.08673 17.921 7.03416 17.714C6.98159 17.5071 6.98983 17.2899 7.05796 17.0873C7.12609 16.8846 7.25137 16.7046 7.41956 16.5677C7.58774 16.4308 7.79209 16.3425 8.00938 16.3128L15.5611 15.2454Z" fill="currentColor" stroke="black" stroke-width="1.5" stroke-linecap="round" stroke-linejoin="round"/>
</svg>
