<svg width="40" height="40" viewBox="0 0 40 40" fill="none" xmlns="http://www.w3.org/2000/svg">
<g clip-path="url(#clip0_1_48)">
<path d="M20.6526 9.14335C23.1426 8.61835 25.7101 9.06235 27.8311 11.0004L27.8446 11.0129C26.0361 11.4179 24.4086 12.1849 23.0386 13.3619C21.2806 14.8724 19.9956 17.0164 19.2736 19.8134C18.6151 22.3679 17.4706 24.2249 15.9846 25.5019C14.6021 26.6899 12.8811 27.4124 10.8796 27.6979C9.04406 25.6029 8.62856 23.0909 9.14306 20.6534C9.66356 18.1884 11.1311 15.7909 13.0336 13.8729C13.3119 13.5922 13.5914 13.3127 13.8721 13.0344C15.7901 11.1319 18.1871 9.66435 20.6526 9.14435" fill="black"/>
<path d="M12.155 28.9877L12.169 29.0002C14.2905 30.9377 16.858 31.3822 19.3475 30.8567C21.813 30.3367 24.21 28.8692 26.128 26.9667C26.4087 26.6882 26.6882 26.4085 26.9665 26.1277C28.8695 24.2097 30.3365 21.8127 30.857 19.3477C31.372 16.9097 30.9565 14.3977 29.1205 12.3027C27.119 12.5882 25.3985 13.3107 24.0155 14.4987C22.5295 15.7757 21.3855 17.6327 20.7265 20.1872C20.0045 22.9842 18.72 25.1282 16.9615 26.6387C15.5915 27.8157 13.964 28.5827 12.155 28.9877Z" fill="black"/>
</g>
<defs>
<clipPath id="clip0_1_48">
<rect width="24" height="24" fill="white" transform="translate(8 8)"/>
</clipPath>
</defs>
</svg>
