<svg width="40" height="40" viewBox="0 0 40 40" fill="none" xmlns="http://www.w3.org/2000/svg">
<path fill-rule="evenodd" clip-rule="evenodd" d="M27 11.6664C26.9999 11.3368 26.8826 11.0146 26.6628 10.7406C26.443 10.4665 26.1307 10.253 25.7653 10.1269C25.3999 10.0007 24.9978 9.96772 24.6099 10.032C24.2219 10.0963 23.8656 10.255 23.5859 10.488L13.5856 18.8216C13.2106 19.1342 13 19.558 13 20C13 20.442 13.2106 20.8658 13.5856 21.1784L23.5859 29.512C23.8656 29.745 24.2219 29.9037 24.6099 29.968C24.9978 30.0323 25.3999 29.9993 25.7653 29.8731C26.1307 29.747 26.443 29.5335 26.6628 29.2594C26.8826 28.9854 26.9999 28.6632 27 28.3336L27 11.6664Z" fill="white"/>
</svg>
