<svg width="22" height="22" viewBox="0 0 22 22" fill="none" xmlns="http://www.w3.org/2000/svg">
<g clip-path="url(#clip0_1_79)">
<path d="M6.50818 14.8369L12.7582 8.58691" stroke="#1774FF" stroke-width="1.66667" stroke-linecap="round" stroke-linejoin="round"/>
<path fill-rule="evenodd" clip-rule="evenodd" d="M6.07111 5.65655C6.07115 5.39139 6.1765 5.1371 6.364 4.9496C6.5515 4.7621 6.80579 4.65674 7.07096 4.6567H15.5562C15.8214 4.65674 16.0757 4.7621 16.2632 4.9496C16.4507 5.1371 16.556 5.39139 16.5561 5.65655L16.5561 14.1418C16.5515 14.404 16.4442 14.6539 16.2572 14.8377C16.0702 15.0215 15.8184 15.1245 15.5562 15.1245C15.294 15.1245 15.0423 15.0215 14.8553 14.8377C14.6683 14.6539 14.5609 14.404 14.5564 14.1418L14.5564 8.07061L6.36385 16.2632C6.17631 16.4507 5.92196 16.556 5.65674 16.556C5.39153 16.556 5.13717 16.4507 4.94964 16.2632C4.7621 16.0756 4.65674 15.8213 4.65674 15.556C4.65674 15.2908 4.7621 15.0365 4.94964 14.8489L13.1422 6.6564L7.07096 6.6564C6.80579 6.65636 6.5515 6.55101 6.364 6.36351C6.1765 6.17601 6.07115 5.92172 6.07111 5.65655Z" fill="#1774FF"/>
</g>
<defs>
<clipPath id="clip0_1_79">
<rect width="21.2042" height="21.2042" fill="white"/>
</clipPath>
</defs>
</svg>
