<svg width="22" height="22" viewBox="0 0 22 22" fill="none" xmlns="http://www.w3.org/2000/svg">
<g clip-path="url(#clip0_1_90)">
<path fill-rule="evenodd" clip-rule="evenodd" d="M6.07099 5.65655C6.07103 5.39139 6.17638 5.1371 6.36388 4.9496C6.55138 4.7621 6.80567 4.65674 7.07084 4.6567H15.5561C15.8213 4.65674 16.0756 4.7621 16.2631 4.9496C16.4506 5.1371 16.5559 5.39139 16.556 5.65655L16.556 14.1418C16.5514 14.404 16.4441 14.6539 16.2571 14.8377C16.07 15.0215 15.8183 15.1245 15.5561 15.1245C15.2939 15.1245 15.0422 15.0215 14.8552 14.8377C14.6682 14.6539 14.5608 14.404 14.5563 14.1418L14.5563 8.07061L6.36373 16.2632C6.17619 16.4507 5.92184 16.556 5.65662 16.556C5.39141 16.556 5.13705 16.4507 4.94952 16.2632C4.76198 16.0756 4.65662 15.8213 4.65662 15.556C4.65662 15.2908 4.76198 15.0365 4.94952 14.8489L13.1421 6.6564L7.07084 6.6564C6.80567 6.65636 6.55138 6.55101 6.36388 6.36351C6.17638 6.17601 6.07103 5.92172 6.07099 5.65655Z" fill="black"/>
</g>
<defs>
<clipPath id="clip0_1_90">
<rect width="21.2042" height="21.2042" fill="white"/>
</clipPath>
</defs>
</svg>
