<svg width="218" height="16" viewBox="0 0 218 16" fill="none" xmlns="http://www.w3.org/2000/svg">
<g clip-path="url(#clip0_1_113)">
<path d="M8.77961 13.7637C8.77961 15.1656 10.8517 14.496 10.8517 15.0191C10.8517 15.2702 10.6425 15.3127 10.3077 15.3127C9.32431 15.3127 8.77961 15.2702 7.52419 15.2702C6.26876 15.2702 5.72474 15.3127 4.74064 15.3127C4.40586 15.3127 4.19663 15.2702 4.19663 15.0191C4.19663 14.496 6.26808 15.1656 6.26808 13.7637L6.24783 1.58402C4.13453 1.58402 2.31349 3.44624 1.49678 5.14174C1.26662 5.62299 1.162 5.895 1.03646 5.895C0.889992 5.895 0.848145 5.8113 0.848145 5.72761C0.848145 5.47652 0.973686 4.97435 1.05738 4.5768L1.72694 1.14462C1.74787 1.0184 1.76879 0.74707 1.95711 0.74707C2.08265 0.74707 2.1245 0.830765 2.22911 0.914461C2.35533 0.998156 2.54365 1.08185 2.98305 1.08185H12.0444C12.4838 1.08185 12.6728 0.998156 12.7977 0.914461C12.9023 0.830765 12.9441 0.74707 13.0697 0.74707C13.258 0.74707 13.2789 1.01908 13.2998 1.14462L13.9694 4.5768C14.0531 4.97435 14.1793 5.47652 14.1793 5.72761C14.1793 5.8113 14.1368 5.895 13.991 5.895C13.8654 5.895 13.7608 5.62299 13.5307 5.14174C12.7146 3.44624 10.8936 1.58402 8.77961 1.58402V13.7637Z" fill="black"/>
<path d="M19.5964 8.02994V13.7644C19.5964 15.1663 21.333 14.4967 21.333 15.0198C21.333 15.2709 21.2075 15.3134 20.8727 15.3134C20.1404 15.3134 19.5963 15.2709 18.3409 15.2709C17.0855 15.2709 16.5408 15.3134 15.8085 15.3134C15.4737 15.3134 15.3481 15.2709 15.3481 15.0198C15.3481 14.4967 17.0855 15.1663 17.0855 13.7644V2.5884C17.0855 1.18583 15.3481 1.85607 15.3481 1.33297C15.3481 1.08189 15.4737 1.04004 15.8085 1.04004C16.5408 1.04004 17.0855 1.08189 18.3409 1.08189C19.5963 1.08189 20.1404 1.04004 20.8727 1.04004C21.2075 1.04004 21.333 1.08189 21.333 1.33297C21.333 1.85607 19.5964 1.18651 19.5964 2.5884V7.52709H25.644V2.5884C25.644 1.18583 23.9067 1.85607 23.9067 1.33297C23.9067 1.08189 24.0329 1.04004 24.3677 1.04004C25.1 1.04004 25.644 1.08189 26.8994 1.08189C28.1549 1.08189 28.6995 1.04004 29.4312 1.04004C29.766 1.04004 29.8922 1.08189 29.8922 1.33297C29.8922 1.85607 28.1549 1.18651 28.1549 2.5884V13.7637C28.1549 15.1656 29.8922 14.4961 29.8922 15.0192C29.8922 15.2702 29.766 15.3128 29.4312 15.3128C28.6989 15.3128 28.1549 15.2702 26.8994 15.2702C25.644 15.2702 25.0993 15.3128 24.3677 15.3128C24.0329 15.3128 23.9067 15.2702 23.9067 15.0192C23.9067 14.4961 25.644 15.1656 25.644 13.7637V8.02926L19.5964 8.02994Z" fill="black"/>
<path d="M33.029 2.5884C33.029 1.18583 31.2917 1.85607 31.2917 1.33297C31.2917 1.08189 31.4179 1.04004 31.7527 1.04004C32.485 1.04004 33.029 1.08189 34.2845 1.08189C38.9093 1.08189 40.4583 1.04004 41.9648 1.04004L42.9692 4.95346C43.032 5.22547 43.0947 5.39286 43.0947 5.49816C43.0947 5.64462 43.0529 5.70739 42.9273 5.70739C42.6763 5.70739 42.739 5.1843 41.7138 3.71963C40.4367 1.89926 38.6582 1.54289 36.1676 1.54289H35.5399V7.69583H36.0002C37.8003 7.69583 39.1604 6.98442 39.1604 4.87044C39.1604 4.55659 39.265 4.47289 39.4115 4.47289C39.5789 4.47289 39.6626 4.55659 39.6626 4.87044V11.128C39.6626 11.4419 39.5789 11.5046 39.4115 11.5046C39.265 11.5046 39.1604 11.4419 39.1604 11.128C39.1604 8.93033 37.8003 8.198 36.0002 8.198H35.5399V13.6395C35.5399 14.4346 36.0421 14.8113 37.2975 14.8113C41.1691 14.8113 42.8227 12.2579 43.4288 10.1858C43.5335 9.87123 43.5962 9.76729 43.7427 9.76729C43.8892 9.76729 43.931 9.87123 43.931 9.97652C43.931 10.1027 43.931 10.2911 43.8682 10.5833L42.9894 15.3134C41.2521 15.3134 39.4736 15.2709 34.2838 15.2709C33.0284 15.2709 32.4837 15.3134 31.752 15.3134C31.4172 15.3134 31.291 15.2709 31.291 15.0198C31.291 14.4967 33.0284 15.1663 33.0284 13.7644L33.029 2.5884Z" fill="black"/>
<path d="M58.9539 13.7637C58.9539 15.1656 61.0261 14.496 61.0261 15.0191C61.0261 15.2702 60.8168 15.3127 60.482 15.3127C59.4986 15.3127 58.9539 15.2702 57.6985 15.2702C56.4431 15.2702 55.8991 15.3127 54.915 15.3127C54.5802 15.3127 54.3709 15.2702 54.3709 15.0191C54.3709 14.496 56.4424 15.1656 56.4424 13.7637L56.4222 1.58402C54.3088 1.58402 52.4878 3.44624 51.6711 5.14174C51.4409 5.62299 51.3363 5.895 51.2108 5.895C51.0643 5.895 51.0225 5.8113 51.0225 5.72761C51.0225 5.47652 51.148 4.97435 51.2317 4.5768L51.9013 1.14462C51.9222 1.0184 51.9431 0.74707 52.1314 0.74707C52.257 0.74707 52.2988 0.830765 52.4034 0.914461C52.529 0.998156 52.7173 1.08185 53.1567 1.08185H62.218C62.6574 1.08185 62.8464 0.998156 62.9713 0.914461C63.0759 0.830765 63.1178 0.74707 63.2433 0.74707C63.4316 0.74707 63.4525 1.01908 63.4735 1.14462L64.143 4.5768C64.2267 4.97435 64.3529 5.47652 64.3529 5.72761C64.3529 5.8113 64.3104 5.895 64.1646 5.895C64.0391 5.895 63.9345 5.62299 63.7043 5.14174C62.8883 3.44624 61.0672 1.58402 58.9533 1.58402L58.9539 13.7637Z" fill="black"/>
<path d="M67.4686 2.5884C67.4686 1.18583 65.7319 1.85607 65.7319 1.33297C65.7319 1.08189 65.8575 1.04004 66.1923 1.04004C66.9246 1.04004 67.4686 1.08189 68.724 1.08189C69.9795 1.08189 70.5242 1.04004 71.2565 1.04004C71.5913 1.04004 71.7168 1.08189 71.7168 1.33297C71.7168 1.85607 69.9795 1.18651 69.9795 2.5884V13.7637C69.9795 15.1656 71.7168 14.4961 71.7168 15.0192C71.7168 15.2702 71.5913 15.3128 71.2565 15.3128C70.5242 15.3128 69.9795 15.2702 68.724 15.2702C67.4686 15.2702 66.9246 15.3128 66.1923 15.3128C65.8575 15.3128 65.7319 15.2702 65.7319 15.0192C65.7319 14.4961 67.4686 15.1656 67.4686 13.7637V2.5884Z" fill="black"/>
<path d="M81.7611 11.776L86.2603 1.08189H87.2235C88.4789 1.08189 89.023 1.04004 89.7553 1.04004C90.0901 1.04004 90.2156 1.08189 90.2156 1.33297C90.2156 1.85607 88.4789 1.18651 88.4789 2.5884V13.7637C88.4789 15.1656 90.2156 14.4961 90.2156 15.0192C90.2156 15.2702 90.0901 15.3128 89.7553 15.3128C89.023 15.3128 88.4789 15.2702 87.2235 15.2702C85.9681 15.2702 85.4234 15.3128 84.6911 15.3128C84.3563 15.3128 84.2307 15.2702 84.2307 15.0192C84.2307 14.4961 85.9681 15.1656 85.9681 13.7637V2.88133H85.9256L81.0496 14.8308C80.966 15.0192 80.8823 15.2702 80.7358 15.2702C80.6312 15.2702 80.5475 15.0603 80.4638 14.8308L75.6925 3.04872H75.6506V11.8171C75.6506 13.5963 76.2574 14.4542 77.0525 14.7053C77.5972 14.8727 77.8483 14.789 77.8483 15.0819C77.8483 15.2702 77.7221 15.3128 77.3873 15.3128C76.8014 15.3128 76.2365 15.2702 75.3996 15.2702C74.1023 15.2702 73.5576 15.3128 73.181 15.3128C72.888 15.3128 72.6997 15.2918 72.6997 15.1029C72.6997 14.7681 72.9299 14.8727 73.4739 14.7053C74.9595 14.2868 75.1478 12.6541 75.1478 10.1223V3.04872C75.1478 1.18583 72.9926 1.85539 72.9926 1.33297C72.9926 1.08189 73.1182 1.04004 73.453 1.04004C74.1853 1.04004 74.73 1.08189 75.9854 1.08189H77.3245L81.7611 11.776Z" fill="black"/>
<path d="M93.2678 2.5884C93.2678 1.18583 91.5305 1.85607 91.5305 1.33297C91.5305 1.08189 91.6567 1.04004 91.9915 1.04004C92.7238 1.04004 93.2678 1.08189 94.5232 1.08189C99.1481 1.08189 100.697 1.04004 102.204 1.04004L103.208 4.95346C103.271 5.22547 103.333 5.39286 103.333 5.49816C103.333 5.64462 103.292 5.70739 103.166 5.70739C102.915 5.70739 102.978 5.1843 101.953 3.71963C100.676 1.89926 98.897 1.54289 96.4064 1.54289H95.7787V7.69583H96.239C98.0391 7.69583 99.3992 6.98442 99.3992 4.87044C99.3992 4.55659 99.5038 4.47289 99.6502 4.47289C99.8176 4.47289 99.9013 4.55659 99.9013 4.87044V11.128C99.9013 11.4419 99.8176 11.5046 99.6502 11.5046C99.5038 11.5046 99.3992 11.4419 99.3992 11.128C99.3992 8.93033 98.0391 8.198 96.239 8.198H95.7787V13.6395C95.7787 14.4346 96.2808 14.8113 97.5363 14.8113C101.408 14.8113 103.061 12.2579 103.668 10.1858C103.772 9.87123 103.835 9.76729 103.981 9.76729C104.128 9.76729 104.17 9.87123 104.17 9.97652C104.17 10.1027 104.17 10.2911 104.107 10.5833L103.228 15.3134C101.491 15.3134 99.7123 15.2709 94.5226 15.2709C93.2671 15.2709 92.7224 15.3134 91.9908 15.3134C91.656 15.3134 91.5298 15.2709 91.5298 15.0198C91.5298 14.4967 93.2671 15.1663 93.2671 13.7644L93.2678 2.5884Z" fill="black"/>
<path d="M106.011 9.51549C106.011 9.32718 106.115 9.2644 106.22 9.2644C106.408 9.2644 106.45 9.4318 106.513 9.89212C106.869 12.4664 107.978 15.1035 110.74 15.1035C112.834 15.1035 113.775 13.8481 113.775 12.4246C113.775 8.19729 106.011 9.91304 106.011 4.76511C106.011 2.58836 108.02 0.74707 110.405 0.74707C112.268 0.74707 112.98 1.58402 113.796 1.58402C114.403 1.58402 114.131 0.914461 114.528 0.914461C114.675 0.914461 114.716 0.998156 114.738 1.22832C115.01 4.15832 115.093 5.60207 115.093 5.87407C115.093 6.08399 114.989 6.16768 114.863 6.16768C114.695 6.16768 114.654 5.89567 114.591 5.66551C113.879 3.27952 112.749 1.24992 110.385 1.24992C108.795 1.24992 107.853 2.19149 107.853 3.51036C107.853 7.36101 115.617 6.06374 115.617 11.1489C115.617 13.3675 114.027 15.6063 110.615 15.6063C109.087 15.6063 107.685 14.8112 107.141 14.8112C106.283 14.8112 106.597 15.5226 106.2 15.5226C106.116 15.5226 106.011 15.4808 106.011 15.2716V9.51549Z" fill="black"/>
<path d="M138.235 8.17637C138.235 12.864 134.259 15.6057 130.722 15.6057C127.186 15.6057 123.209 12.864 123.209 8.17637C123.209 3.48876 127.186 0.74707 130.722 0.74707C134.259 0.74707 138.235 3.48876 138.235 8.17637ZM130.722 1.24924C127.981 1.24924 125.972 3.44624 125.972 8.17637C125.972 12.9058 127.981 15.1035 130.722 15.1035C133.463 15.1035 135.473 12.9058 135.473 8.17637C135.473 3.44624 133.464 1.24924 130.722 1.24924Z" fill="black"/>
<path d="M141.517 2.5884C141.517 1.18583 139.78 1.85607 139.78 1.33297C139.78 1.08189 139.906 1.04004 140.241 1.04004C140.973 1.04004 141.517 1.08189 142.773 1.08189C147.398 1.08189 148.947 1.04004 150.286 1.04004L151.291 4.95346C151.354 5.22547 151.416 5.39286 151.416 5.49816C151.416 5.64462 151.374 5.7074 151.249 5.7074C150.998 5.7074 151.061 5.1843 150.035 3.71963C148.758 1.89926 146.98 1.54289 144.489 1.54289H144.028V7.69583H144.489C146.289 7.69583 147.649 6.98442 147.649 4.87044C147.649 4.55659 147.754 4.47289 147.9 4.47289C148.068 4.47289 148.152 4.55659 148.152 4.87044V11.128C148.152 11.4419 148.068 11.5046 147.9 11.5046C147.754 11.5046 147.649 11.4419 147.649 11.128C147.649 8.93033 146.289 8.198 144.489 8.198H144.028V13.7651C144.028 15.167 145.766 14.4974 145.766 15.0205C145.766 15.2716 145.639 15.3141 145.305 15.3141C144.572 15.3141 144.028 15.2716 142.773 15.2716C141.517 15.2716 140.973 15.3141 140.24 15.3141C139.906 15.3141 139.779 15.2716 139.779 15.0205C139.779 14.4974 141.516 15.167 141.516 13.7651L141.517 2.5884Z" fill="black"/>
<path d="M160.453 2.5884C160.453 1.18583 158.717 1.85607 158.717 1.33297C158.717 1.08189 158.842 1.04004 159.177 1.04004C159.909 1.04004 160.454 1.08189 161.71 1.08189C162.965 1.08189 163.509 1.04004 164.242 1.04004C164.577 1.04004 164.702 1.08189 164.702 1.33297C164.702 1.85607 162.966 1.18651 162.966 2.5884V13.7637C162.966 15.1656 164.702 14.4961 164.702 15.0192C164.702 15.2702 164.577 15.3128 164.242 15.3128C163.509 15.3128 162.965 15.2702 161.71 15.2702C160.454 15.2702 159.909 15.3128 159.177 15.3128C158.842 15.3128 158.717 15.2702 158.717 15.0192C158.717 14.4961 160.453 15.1656 160.453 13.7637V2.5884Z" fill="black"/>
<path d="M177.445 4.53401C177.445 2.75549 176.671 1.89761 175.876 1.64653C175.331 1.47914 175.081 1.56283 175.081 1.26922C175.081 1.08091 175.206 1.03906 175.541 1.03906C176.294 1.03906 176.859 1.08091 177.739 1.08091C178.617 1.08091 179.182 1.03906 179.936 1.03906C180.271 1.03906 180.397 1.08091 180.397 1.26922C180.397 1.56283 180.146 1.47914 179.602 1.64653C178.806 1.89761 178.032 2.75549 178.032 4.53401V15.3125C178.032 15.4589 177.948 15.6054 177.78 15.6054C177.634 15.6054 177.467 15.5426 177.362 15.3955L168.488 3.59244H168.446V11.8168C168.446 13.596 169.22 14.4539 170.015 14.705C170.56 14.8724 170.81 14.7887 170.81 15.0816C170.81 15.2699 170.685 15.3125 170.35 15.3125C169.597 15.3125 169.032 15.2699 168.152 15.2699C167.273 15.2699 166.708 15.3125 165.954 15.3125C165.62 15.3125 165.494 15.2699 165.494 15.0816C165.494 14.7887 165.745 14.8724 166.289 14.705C167.085 14.4539 167.859 13.5954 167.859 11.8168V2.86011C166.645 1.12343 165.515 1.73022 165.515 1.33267C165.515 1.10251 165.662 1.03974 165.975 1.03974C166.478 1.03974 166.896 1.08158 167.566 1.08158H169.512L177.402 11.671H177.444V4.53401H177.445Z" fill="black"/>
<path d="M182.779 2.5884C182.779 1.18583 181.042 1.85607 181.042 1.33297C181.042 1.08189 181.168 1.04004 181.503 1.04004C182.235 1.04004 182.78 1.08189 184.035 1.08189C184.893 1.08189 185.856 1.04004 187.007 1.04004C191.967 1.04004 195.002 3.94912 195.002 8.23917C195.002 12.1526 192.595 15.3128 187.885 15.3128C186.484 15.3128 185.27 15.2702 184.035 15.2702C182.78 15.2702 182.235 15.3128 181.503 15.3128C181.168 15.3128 181.042 15.2702 181.042 15.0192C181.042 14.4961 182.779 15.1656 182.779 13.7637V2.5884ZM185.291 12.9268C185.291 14.2659 186.064 14.8106 187.572 14.8106C189.958 14.8106 192.238 13.7219 192.238 8.38497C192.238 4.38785 190.649 1.54154 187.446 1.54154H185.291V12.9268Z" fill="black"/>
<path d="M198.43 2.5884C198.43 1.18583 196.693 1.85607 196.693 1.33297C196.693 1.08189 196.819 1.04004 197.154 1.04004C197.886 1.04004 198.431 1.08189 199.686 1.08189C200.942 1.08189 201.486 1.04004 202.218 1.04004C202.553 1.04004 202.679 1.08189 202.679 1.33297C202.679 1.85607 200.942 1.18651 200.942 2.5884V13.7637C200.942 15.1656 202.679 14.4961 202.679 15.0192C202.679 15.2702 202.553 15.3128 202.218 15.3128C201.486 15.3128 200.942 15.2702 199.686 15.2702C198.431 15.2702 197.886 15.3128 197.154 15.3128C196.819 15.3128 196.693 15.2702 196.693 15.0192C196.693 14.4961 198.43 15.1656 198.43 13.7637V2.5884Z" fill="black"/>
<path d="M207.406 10.1641C206.841 11.7759 206.569 12.3821 206.569 12.9895C206.569 15.0826 208.306 14.5797 208.306 15.0826C208.306 15.3134 208.201 15.3134 207.971 15.3134C207.532 15.3134 207.029 15.2709 205.607 15.2709C204.916 15.2709 204.246 15.3134 203.493 15.3134C203.283 15.3134 203.221 15.2291 203.221 15.0617C203.221 14.685 204.037 14.8943 204.623 14.3921C205.167 13.9318 205.857 12.8228 206.423 11.3993C208.934 5.12083 209.29 4.34665 209.29 4.17926C209.29 4.03279 208.788 3.63524 208.788 3.38416C208.788 3.0703 209.143 3.11215 209.729 1.87764C210.169 0.956997 210.064 0.664062 210.336 0.664062C210.608 0.664062 210.587 1.35455 211.843 4.11716L216.3 13.9743C216.865 15.2088 217.848 14.602 217.848 15.0617C217.848 15.2925 217.702 15.3134 217.493 15.3134C216.656 15.3134 215.82 15.2709 214.982 15.2709C214.144 15.2709 213.328 15.3134 212.47 15.3134C212.26 15.3134 212.136 15.25 212.136 15.0617C212.136 14.5392 213.6 15.146 213.6 14.0155C213.6 13.8272 213.39 13.1994 213.245 12.8849L212.051 10.1648L207.406 10.1641ZM209.583 4.51404L207.616 9.66197H211.843L209.583 4.51404Z" fill="black"/>
</g>
<defs>
<clipPath id="clip0_1_113">
<rect width="218" height="16" fill="white"/>
</clipPath>
</defs>
</svg>
