<svg width="40" height="40" viewBox="0 0 40 40" fill="none" xmlns="http://www.w3.org/2000/svg">
<path d="M33.3002 27.5105L34.4282 20.9825C34.4944 20.5999 34.4762 20.2075 34.3749 19.8326C34.2735 19.4578 34.0916 19.1096 33.8416 18.8124C33.5917 18.5152 33.2799 18.2763 32.9279 18.1122C32.576 17.9481 32.1925 17.8629 31.8042 17.8625H23.513C23.3197 17.8623 23.1287 17.8201 22.9533 17.7387C22.778 17.6574 22.6224 17.5388 22.4974 17.3913C22.3724 17.2438 22.2811 17.0709 22.2296 16.8845C22.1781 16.6982 22.1678 16.5029 22.1994 16.3121L23.2602 9.84014C23.4315 8.78927 23.3825 7.71425 23.1162 6.68334C23.0011 6.25757 22.7805 5.86768 22.4748 5.54972C22.1692 5.23175 21.7883 4.99596 21.3674 4.86414L21.1354 4.78894C20.6113 4.62153 20.043 4.66044 19.5466 4.89774C19.0026 5.16014 18.6058 5.63854 18.4586 6.20654L17.697 9.14094C17.4549 10.0749 17.1026 10.9767 16.6474 11.8273C15.9818 13.0705 14.9546 14.0673 13.8874 14.9873L11.5834 16.9713C11.264 17.2474 11.0145 17.5951 10.8554 17.9862C10.6963 18.3772 10.6322 18.8003 10.6682 19.2209L11.969 34.2497C12.0262 34.9141 12.3304 35.5329 12.8215 35.984C13.3126 36.4351 13.9549 36.6858 14.6218 36.6865H22.0602C27.6298 36.6865 32.3834 32.8049 33.2986 27.5105" fill="black"/>
<path opacity="0.5" fill-rule="evenodd" clip-rule="evenodd" d="M5.61694 16.6623C5.92616 16.6488 6.22864 16.7552 6.4612 16.9595C6.69376 17.1637 6.83841 17.4499 6.86494 17.7583L8.41694 35.7359C8.44323 36.0036 8.41467 36.2739 8.33301 36.5302C8.25135 36.7865 8.11829 37.0234 7.94197 37.2266C7.76565 37.4298 7.54977 37.5948 7.30751 37.7118C7.06525 37.8287 6.80169 37.895 6.53295 37.9067C6.2642 37.9183 5.99589 37.8751 5.74442 37.7795C5.49295 37.684 5.26359 37.5382 5.07035 37.3511C4.87711 37.164 4.72404 36.9394 4.6205 36.6911C4.51696 36.4428 4.46512 36.1761 4.46814 35.9071V17.8607C4.46827 17.5514 4.58783 17.2541 4.80188 17.0308C5.01592 16.8075 5.30792 16.6755 5.61694 16.6623Z" fill="black"/>
</svg>
