<svg width="175" height="64" viewBox="0 0 175 64" fill="none" xmlns="http://www.w3.org/2000/svg">
<g clip-path="url(#clip0_1_197)">
<path d="M22.5924 53.3991C32.6321 53.3991 40.771 45.2603 40.771 35.2206C40.771 25.1808 32.6321 17.042 22.5924 17.042C12.5526 17.042 4.41382 25.1808 4.41382 35.2206C4.41382 45.2603 12.5526 53.3991 22.5924 53.3991Z" fill="white"/>
<path d="M87.3535 53.3991C97.3932 53.3991 105.532 45.2603 105.532 35.2206C105.532 25.1808 97.3932 17.042 87.3535 17.042C77.3138 17.042 69.1749 25.1808 69.1749 35.2206C69.1749 45.2603 77.3138 53.3991 87.3535 53.3991Z" fill="white"/>
<path d="M152.115 53.3991C162.154 53.3991 170.293 45.2603 170.293 35.2206C170.293 25.1808 162.154 17.042 152.115 17.042C142.075 17.042 133.936 25.1808 133.936 35.2206C133.936 45.2603 142.075 53.3991 152.115 53.3991Z" fill="white"/>
<path d="M29.8347 31.5586C28.9268 31.5603 28.0566 31.9223 27.4152 32.5648C26.7739 33.2074 26.4137 34.0783 26.4137 34.9861C26.4137 35.2483 26.5179 35.4998 26.7033 35.6852C26.8887 35.8707 27.1402 35.9747 27.4024 35.9747C27.6646 35.9747 27.9162 35.8707 28.1016 35.6852C28.287 35.4998 28.3911 35.2483 28.3911 34.9861C28.3911 34.6033 28.5432 34.2361 28.8139 33.9654C29.0846 33.6947 29.4518 33.5426 29.8347 33.5426C30.2174 33.5426 30.5847 33.6947 30.8553 33.9654C31.126 34.2361 31.2781 34.6033 31.2781 34.9861C31.2781 35.2483 31.3821 35.4998 31.5675 35.6852C31.753 35.8707 32.0045 35.9747 32.2667 35.9747C32.529 35.9747 32.7804 35.8707 32.9658 35.6852C33.1512 35.4998 33.2554 35.2483 33.2554 34.9861C33.2554 34.0783 32.8953 33.2074 32.2539 32.5648C31.6125 31.9223 30.7425 31.5603 29.8347 31.5586Z" fill="black"/>
<path d="M14.8337 31.5586C13.9259 31.5603 13.0557 31.9223 12.4144 32.5648C11.773 33.2074 11.4127 34.0783 11.4128 34.9861C11.4128 35.2483 11.517 35.4998 11.7024 35.6852C11.8879 35.8707 12.1393 35.9747 12.4014 35.9747C12.6636 35.9747 12.9152 35.8707 13.1006 35.6852C13.286 35.4998 13.3901 35.2483 13.3901 34.9861C13.3768 34.7879 13.4043 34.5891 13.4709 34.4018C13.5376 34.2147 13.642 34.0433 13.7776 33.8982C13.9133 33.753 14.0774 33.6373 14.2596 33.5582C14.4418 33.479 14.6383 33.4383 14.837 33.4383C15.0356 33.4383 15.2322 33.479 15.4143 33.5582C15.5965 33.6373 15.7606 33.753 15.8962 33.8982C16.0319 34.0433 16.1363 34.2147 16.203 34.4018C16.2697 34.5891 16.2972 34.7879 16.2838 34.9861C16.2838 35.2483 16.3879 35.4998 16.5733 35.6852C16.7587 35.8707 17.0103 35.9747 17.2725 35.9747C17.5347 35.9747 17.786 35.8707 17.9714 35.6852C18.1569 35.4998 18.2612 35.2483 18.2612 34.9861C18.2612 34.0771 17.9 33.2052 17.2571 32.5625C16.6144 31.9198 15.7428 31.5586 14.8337 31.5586Z" fill="black"/>
<path d="M24.7661 41.5176C24.5039 41.5176 24.2525 41.6219 24.0672 41.8073C23.8818 41.9927 23.7775 42.244 23.7775 42.5063C23.7775 42.8892 23.6254 43.2562 23.3547 43.527C23.0841 43.7977 22.7168 43.9498 22.3341 43.9498C21.9512 43.9498 21.584 43.7977 21.3133 43.527C21.0426 43.2562 20.8906 42.8892 20.8906 42.5063C20.8906 42.244 20.7864 41.9927 20.601 41.8073C20.4156 41.6219 20.1641 41.5176 19.9019 41.5176C19.6397 41.5176 19.3881 41.6219 19.2027 41.8073C19.0173 41.9927 18.9132 42.244 18.9132 42.5063C18.9132 43.4135 19.2736 44.2837 19.9151 44.9252C20.5567 45.5667 21.4267 45.9271 22.3341 45.9271C23.2413 45.9271 24.1114 45.5667 24.753 44.9252C25.3944 44.2837 25.7548 43.4135 25.7548 42.5063C25.7548 42.244 25.6508 41.9927 25.4653 41.8073C25.2799 41.6219 25.0284 41.5176 24.7661 41.5176Z" fill="black"/>
<path d="M44.6062 33.9713C44.6062 33.5824 44.5403 33.1936 44.4942 32.8047C44.4942 32.7585 44.4942 32.719 44.4942 32.6729C44.448 32.2905 44.3887 31.9148 44.3228 31.5392L44.2832 31.315C44.2173 30.9459 44.1381 30.5769 44.0458 30.2077C44.0489 30.1682 44.0489 30.1285 44.0458 30.089C43.4137 27.4333 42.2965 24.9172 40.7503 22.6674C40.425 22.9266 40.0713 23.1477 39.6958 23.3265C39.1033 23.583 38.4735 23.7432 37.8303 23.801L37.6327 23.6495C38.1528 23.4959 38.6433 23.2552 39.0828 22.9376L39.142 22.898L39.287 22.7926L39.4584 22.6541L39.5178 22.6015C39.6126 22.5187 39.7029 22.4306 39.788 22.3378C39.9221 22.1961 40.0477 22.0465 40.1637 21.8896C41.5149 20.0046 41.3106 17.8426 40.658 15.9576C39.8408 17.0319 38.6806 17.9941 37.1581 17.7371C36.1628 17.5724 34.9303 16.7484 33.2033 15.8388C30.6189 14.4112 27.7751 13.5148 24.8391 13.2024L24.4108 13.1562H23.9691C23.6329 13.1562 23.31 13.1101 22.9278 13.1035H22.1498C18.2411 13.1424 14.4121 14.2134 11.0504 16.208C9.63324 16.9792 8.57201 17.6383 7.70198 17.7832C6.15963 18.0404 5.01272 17.078 4.1954 16.0036C3.53628 17.8755 3.34511 20.0111 4.66335 21.8896C4.91087 22.2488 5.21344 22.5669 5.55982 22.8321C6.05252 23.2192 6.61379 23.51 7.21423 23.689L7.00986 23.8406C6.36895 23.7825 5.74142 23.6223 5.15109 23.366C4.7727 23.1888 4.41661 22.9675 4.09 22.7069C2.30452 25.2779 1.08471 28.1983 0.511016 31.2755L0.451637 31.6313V31.7567C0.346178 32.3718 0.267012 32.9913 0.214283 33.6153C0.214283 33.767 0.214399 33.912 0.168259 34.0702V34.1031C0.135304 34.5579 0.115479 35.0193 0.115479 35.4807V63.724C0.115479 63.724 0.939316 63.724 2.19164 63.5395C2.65231 63.488 3.08032 63.2764 3.40079 62.9414C3.72124 62.6065 3.91389 62.1696 3.94501 61.7071L4.12299 59.1431L4.78211 61.193C4.85745 61.4422 4.98115 61.6739 5.14627 61.8751C5.31138 62.0762 5.5146 62.2429 5.74425 62.3653C5.97387 62.4878 6.22542 62.5638 6.48447 62.5888C6.74351 62.6139 7.00497 62.5875 7.25382 62.5113H7.29324C7.76442 62.3713 8.1666 62.0607 8.42128 61.6403C8.67596 61.2199 8.76496 60.7197 8.67086 60.2373L8.25569 58.0358L9.68594 59.6441C10.4307 60.4811 12.3225 60.3428 13.5353 59.2683C14.1524 58.7816 14.5526 58.0711 14.6491 57.291C12.6345 56.3592 10.8021 55.0759 9.23778 53.5011C11.0474 54.829 13.0474 55.8757 15.1698 56.6055C15.1698 56.6055 16.119 56.9285 16.4881 57.0208L17.0219 57.146H17.1275C17.747 57.2998 18.3797 57.425 19.0256 57.5217C19.1532 58.1925 19.4634 58.8152 19.9221 59.3211V61.4435C19.9204 61.6452 19.839 61.8379 19.6959 61.9799C19.5527 62.1218 19.3591 62.2014 19.1574 62.2014H16.7979C16.595 62.2014 16.4005 62.282 16.2572 62.4254C16.1138 62.5689 16.0332 62.7633 16.0332 62.9661C16.0332 63.0662 16.0531 63.1653 16.0916 63.2576C16.1301 63.35 16.1865 63.434 16.2575 63.5044C16.3286 63.5748 16.413 63.6305 16.5059 63.6682C16.5986 63.706 16.6978 63.7249 16.7979 63.724H20.68C20.7801 63.7249 20.8794 63.706 20.9721 63.6682C21.0648 63.6305 21.1491 63.5748 21.2202 63.5044C21.2914 63.434 21.3478 63.35 21.3864 63.2576C21.4249 63.1653 21.4447 63.0662 21.4447 62.9661V59.1959C21.7805 58.7848 22.0233 58.3058 22.1564 57.792H22.776C22.9098 58.3088 23.1551 58.7902 23.4945 59.2024V62.9727C23.4945 63.1737 23.5744 63.3665 23.7166 63.5087C23.8587 63.6508 24.0516 63.7306 24.2525 63.7306H28.1413C28.2411 63.7315 28.3401 63.7125 28.4325 63.6747C28.5248 63.637 28.6087 63.5812 28.6793 63.5106C28.7498 63.44 28.8056 63.3561 28.8434 63.2638C28.8811 63.1714 28.9001 63.0724 28.8992 62.9727C28.9001 62.8726 28.8813 62.7733 28.8435 62.6806C28.8059 62.5879 28.75 62.5036 28.6796 62.4324C28.6092 62.3613 28.5253 62.3048 28.4329 62.2663C28.3406 62.2279 28.2415 62.208 28.1413 62.208H25.775C25.574 62.208 25.3813 62.1282 25.2392 61.986C25.0971 61.8439 25.0171 61.6511 25.0171 61.4501V59.3276C25.4771 58.8175 25.7872 58.1903 25.9134 57.5151L26.6451 57.4097H26.7571L27.8842 57.146H28.0096C28.3984 57.0537 28.7938 56.9483 29.0707 56.8625L29.4464 56.7703L29.5058 56.7241C31.7392 55.9829 33.838 54.8856 35.7212 53.4747H35.6882L35.5696 53.5933C35.339 53.8175 35.1082 54.0415 34.871 54.2525L34.805 54.3117C33.434 55.5315 31.8904 56.5421 30.2241 57.3108C30.321 58.0891 30.7185 58.7988 31.3315 59.2882C32.5641 60.3626 34.4425 60.501 35.1873 59.6638L36.6175 58.0556L36.2023 60.257C36.1083 60.7396 36.1972 61.2397 36.452 61.6601C36.7067 62.0806 37.1088 62.391 37.58 62.531H37.6195C37.8683 62.6072 38.1297 62.6336 38.3888 62.6085C38.6478 62.5835 38.8994 62.5075 39.129 62.3851C39.3586 62.2626 39.5619 62.096 39.7269 61.8948C39.8921 61.6937 40.0158 61.4618 40.0911 61.2128L40.7503 59.1629L40.9282 61.7269C40.9593 62.1894 41.152 62.6263 41.4724 62.9611C41.7929 63.296 42.2209 63.5078 42.6816 63.5593C43.9273 63.7108 44.7512 63.7439 44.7512 63.7439V36.6474C44.7512 36.2651 44.7974 35.8893 44.7974 35.5004C44.7974 35.1115 44.7973 34.571 44.7512 34.1097L44.6062 33.9713ZM22.5586 49.6651H22.0643C22.0643 49.6651 5.44783 45.5719 5.44783 33.8461C5.41443 32.7154 5.60729 31.5892 6.01523 30.534C6.42317 29.4789 7.03793 28.5159 7.82331 27.7017C8.60868 26.8874 9.54877 26.2384 10.5885 25.7927C11.6283 25.3469 12.7466 25.1135 13.8778 25.1061C15.4847 25.1034 17.0727 25.4524 18.5302 26.1288C19.9876 26.8053 21.2793 27.7925 22.3146 29.0212C23.3483 27.7923 24.639 26.8048 26.0954 26.1283C27.552 25.4519 29.1389 25.103 30.7448 25.1061C31.8764 25.1135 32.9951 25.3469 34.0351 25.7926C35.0753 26.2382 36.0159 26.8872 36.8018 27.7014C37.5877 28.5154 38.203 29.4784 38.6117 30.5336C39.0204 31.5887 39.2141 32.715 39.1816 33.8461C39.1816 45.5917 22.5586 49.6651 22.5586 49.6651Z" fill="black"/>
<path d="M147.303 33.5361C147.042 33.5378 146.791 33.6426 146.605 33.8277C146.42 34.0128 146.316 34.2632 146.315 34.5248C146.315 34.9077 146.162 35.2748 145.892 35.5455C145.62 35.8163 145.253 35.9683 144.87 35.9683C144.488 35.9683 144.121 35.8163 143.85 35.5455C143.58 35.2748 143.428 34.9077 143.428 34.5248C143.428 34.2626 143.323 34.0112 143.138 33.8257C142.953 33.6403 142.7 33.5361 142.439 33.5361C142.177 33.5361 141.926 33.6403 141.739 33.8257C141.554 34.0112 141.449 34.2626 141.449 34.5248C141.449 35.4322 141.811 36.3022 142.452 36.9438C143.093 37.5853 143.964 37.9457 144.87 37.9457C145.778 37.9457 146.649 37.5853 147.289 36.9438C147.931 36.3022 148.291 35.4322 148.291 34.5248C148.291 34.2626 148.187 34.0112 148.002 33.8257C147.817 33.6403 147.565 33.5361 147.303 33.5361Z" fill="black"/>
<path d="M162.306 33.5361C162.043 33.5361 161.792 33.6403 161.607 33.8257C161.421 34.0112 161.317 34.2626 161.317 34.5248C161.317 34.9077 161.165 35.2748 160.895 35.5455C160.623 35.8163 160.256 35.9683 159.873 35.9683C159.49 35.9683 159.124 35.8163 158.853 35.5455C158.583 35.2748 158.43 34.9077 158.43 34.5248C158.43 34.2626 158.326 34.0112 158.141 33.8257C157.956 33.6403 157.703 33.5361 157.442 33.5361C157.18 33.5361 156.928 33.6403 156.742 33.8257C156.557 34.0112 156.452 34.2626 156.452 34.5248C156.452 35.4322 156.814 36.3022 157.454 36.9438C158.096 37.5853 158.967 37.9457 159.873 37.9457C160.781 37.9457 161.651 37.5853 162.292 36.9438C162.934 36.3022 163.294 35.4322 163.294 34.5248C163.294 34.2626 163.191 34.0112 163.005 33.8257C162.819 33.6403 162.568 33.5361 162.306 33.5361Z" fill="black"/>
<path d="M174.637 33.9909C174.637 33.602 174.571 33.2131 174.524 32.8242C174.524 32.7781 174.524 32.7385 174.524 32.6924C174.479 32.3102 174.42 31.9343 174.354 31.5587L174.314 31.3346C174.239 30.9655 174.159 30.5964 174.077 30.2273C174.079 30.1877 174.079 30.1482 174.077 30.1087C173.441 27.4539 172.325 24.9382 170.781 22.6869C170.454 22.9448 170.101 23.1658 169.726 23.346C169.134 23.6027 168.504 23.7629 167.861 23.8206L167.663 23.669C168.183 23.5155 168.673 23.2749 169.113 22.9572L169.166 22.9175L169.317 22.8121L169.489 22.6737L169.548 22.621C169.641 22.5353 169.733 22.4497 169.818 22.3574C169.952 22.2157 170.078 22.066 170.194 21.9091C171.545 20.0241 171.341 17.8621 170.689 15.9771C169.872 17.0514 168.712 18.0138 167.182 17.7568C166.193 17.5919 164.961 16.7681 163.227 15.8585C160.643 14.4309 157.799 13.5345 154.863 13.2219L154.435 13.1758H153.986C153.656 13.1758 153.327 13.1296 152.952 13.123H152.174C148.263 13.1627 144.432 14.2335 141.068 16.2275C139.651 16.9987 138.595 17.6578 137.726 17.8028C136.183 18.0599 135.037 17.0976 134.219 16.0232C133.56 17.8951 133.369 20.0307 134.687 21.9091C134.935 22.2668 135.235 22.5847 135.577 22.8518C136.072 23.2383 136.635 23.529 137.238 23.7085L137.033 23.8602C136.39 23.8024 135.761 23.6422 135.169 23.3856C134.792 23.2052 134.436 22.9842 134.108 22.7266C132.326 25.2994 131.109 28.2193 130.534 31.2951L130.475 31.651V31.7762C130.37 32.3914 130.291 33.011 130.238 33.635C130.238 33.7865 130.205 33.9316 130.192 34.0898V34.1227C130.192 34.5775 130.146 35.0388 130.146 35.5002V63.7437C130.146 63.7437 130.969 63.7437 132.223 63.559C132.682 63.5061 133.108 63.2937 133.427 62.959C133.746 62.6242 133.938 62.1881 133.969 61.7268L134.153 59.1627L134.813 61.2125C134.888 61.4617 135.012 61.6935 135.177 61.8946C135.341 62.0958 135.545 62.2623 135.774 62.3848C136.004 62.5073 136.256 62.5833 136.515 62.6084C136.774 62.6334 137.035 62.607 137.284 62.5308H137.317C137.79 62.3921 138.193 62.0823 138.449 61.6617C138.706 61.2412 138.795 60.7402 138.701 60.2569L138.286 58.0555L139.717 59.6636C140.454 60.5007 142.353 60.3623 143.566 59.288C144.181 58.8005 144.578 58.0899 144.673 57.3106C142.662 56.377 140.831 55.0938 139.268 53.5207C141.078 54.8486 143.078 55.8952 145.2 56.6251C145.2 56.6251 146.143 56.9481 146.519 57.0403L147.052 57.1656H147.164C147.904 57.3436 148.652 57.4842 149.406 57.5874C149.533 58.2417 149.839 58.8482 150.289 59.3407V61.9772C150.289 62.0489 150.26 62.1176 150.209 62.1683C150.159 62.2189 150.09 62.2475 150.018 62.2475H149.136C148.933 62.2492 148.74 62.3305 148.599 62.4737C148.457 62.6169 148.378 62.8104 148.378 63.012C148.379 63.2125 148.46 63.4043 148.602 63.5461C148.742 63.6878 148.934 63.7682 149.136 63.7699H150.625C150.937 63.7699 151.237 63.6456 151.459 63.4244C151.681 63.2031 151.804 62.9031 151.804 62.5902V59.2417C151.713 59.1136 151.66 58.9628 151.649 58.806C151.637 58.6492 151.67 58.4923 151.742 58.3527C151.815 58.2129 151.924 58.0958 152.058 58.014C152.192 57.9322 152.346 57.8889 152.503 57.8889C152.661 57.8889 152.814 57.9322 152.948 58.014C153.084 58.0958 153.193 58.2129 153.264 58.3527C153.337 58.4923 153.369 58.6492 153.358 58.806C153.347 58.9628 153.293 59.1136 153.202 59.2417V62.5902C153.202 62.9031 153.326 63.2031 153.547 63.4244C153.769 63.6456 154.069 63.7699 154.382 63.7699H155.872C156.072 63.7682 156.264 63.6878 156.406 63.5461C156.548 63.4043 156.627 63.2125 156.63 63.012C156.63 62.8104 156.55 62.6169 156.408 62.4737C156.266 62.3305 156.073 62.2492 155.872 62.2475H154.988C154.953 62.2475 154.919 62.2404 154.886 62.2268C154.854 62.2131 154.824 62.193 154.799 62.1678C154.774 62.1427 154.755 62.1128 154.742 62.0801C154.73 62.0474 154.723 62.0124 154.724 61.9772V59.3407C155.17 58.8432 155.472 58.2353 155.601 57.5808C155.964 57.5347 156.326 57.4885 156.675 57.4226H156.794L157.921 57.159H158.046C158.429 57.0668 158.83 56.9612 159.108 56.8756L159.484 56.7833L159.543 56.7372C161.776 55.9958 163.875 54.8985 165.759 53.4877H165.726L165.606 53.6064C165.376 53.8304 165.145 54.0546 164.901 54.2655L164.835 54.3248C163.468 55.5462 161.926 56.5569 160.261 57.3238C160.355 58.1031 160.753 58.8136 161.369 59.3012C162.595 60.3755 164.479 60.5139 165.225 59.6769L166.648 58.0687L166.239 60.2701C166.145 60.7525 166.235 61.2527 166.489 61.6731C166.744 62.0935 167.146 62.404 167.616 62.544H167.656C167.905 62.6202 168.166 62.6466 168.425 62.6215C168.684 62.5965 168.937 62.5205 169.166 62.398C169.396 62.2756 169.599 62.109 169.764 61.9079C169.93 61.7066 170.053 61.4749 170.128 61.2257L170.787 59.1758L170.971 61.7399C171.003 62.2024 171.195 62.6392 171.516 62.9741C171.836 63.3091 172.264 63.5208 172.725 63.5722C173.971 63.7239 174.795 63.7568 174.795 63.7568V36.6603C174.795 36.278 174.841 35.9023 174.841 35.5134C174.841 35.1246 174.67 34.4523 174.637 33.9909ZM152.345 49.7241C152.345 49.7241 135.478 45.5717 135.478 33.8195C135.446 32.6884 135.639 31.5621 136.048 30.507C136.457 29.4518 137.072 28.4889 137.858 27.6748C138.644 26.8606 139.585 26.2117 140.625 25.766C141.664 25.3204 142.783 25.0869 143.915 25.0795C145.52 25.0764 147.107 25.4254 148.564 26.1018C150.021 26.7782 151.311 27.7657 152.345 28.9946C153.38 27.7659 154.672 26.7787 156.13 26.1022C157.587 25.4259 159.175 25.0768 160.782 25.0795C161.913 25.0869 163.032 25.3204 164.072 25.7661C165.111 26.2118 166.051 26.8609 166.837 27.6751C167.622 28.4894 168.237 29.4523 168.645 30.5074C169.052 31.5626 169.246 32.6888 169.212 33.8195C169.212 45.5915 152.345 49.7241 152.345 49.7241Z" fill="black"/>
<path d="M153.764 42.5068H150.982C150.84 42.5063 150.7 42.543 150.576 42.6133C150.453 42.6836 150.349 42.7851 150.276 42.9076C150.204 43.0302 150.164 43.1696 150.162 43.312C150.161 43.4544 150.196 43.5951 150.264 43.7197C150.478 44.0908 150.784 44.399 151.155 44.6134C151.525 44.8278 151.945 44.9407 152.374 44.9407C152.801 44.9407 153.221 44.8278 153.592 44.6134C153.962 44.399 154.269 44.0908 154.482 43.7197C154.552 43.5951 154.587 43.4544 154.585 43.312C154.582 43.1696 154.543 43.0302 154.47 42.9076C154.397 42.7851 154.295 42.6836 154.171 42.6133C154.046 42.543 153.906 42.5063 153.764 42.5068Z" fill="black"/>
<path d="M154.885 39.462H154.318L155.398 38.1438C155.478 38.0474 155.528 37.9306 155.542 37.8068C155.557 37.6832 155.538 37.5578 155.484 37.4452C155.43 37.3319 155.345 37.2365 155.239 37.17C155.132 37.1034 155.01 37.0686 154.885 37.0693H152.907C152.733 37.0693 152.565 37.1389 152.441 37.2625C152.317 37.3861 152.248 37.5537 152.248 37.7285C152.248 37.9033 152.317 38.071 152.441 38.1946C152.565 38.3182 152.733 38.3876 152.907 38.3876H153.48L152.4 39.7059C152.32 39.8024 152.27 39.9192 152.255 40.0428C152.241 40.1665 152.26 40.292 152.313 40.4046C152.368 40.5156 152.452 40.6089 152.558 40.6742C152.662 40.7395 152.784 40.7739 152.907 40.7737H154.885C155.06 40.7737 155.227 40.7043 155.35 40.5807C155.474 40.457 155.544 40.2893 155.544 40.1145C155.544 39.9397 155.474 39.7722 155.35 39.6485C155.227 39.5249 155.06 39.4554 154.885 39.4554V39.462Z" fill="black"/>
<path d="M79.1384 26.4766C77.6898 26.4753 76.2733 26.9036 75.0682 27.7076C73.8632 28.5114 72.9236 29.6546 72.3684 30.9926C71.8131 32.3305 71.667 33.8031 71.9489 35.2241C72.2306 36.645 72.9276 37.9503 73.9515 38.9751C74.9754 39.9999 76.2801 40.698 77.7009 40.981C79.1216 41.2642 80.5943 41.1195 81.9327 40.5655C83.2712 40.0114 84.4152 39.0728 85.2201 37.8685C86.025 36.6642 86.4547 35.2481 86.4547 33.7995C86.4547 31.8584 85.684 29.9968 84.3122 28.6238C82.9403 27.2506 81.0794 26.4784 79.1384 26.4766ZM79.1384 39.079C78.0955 39.079 77.0761 38.7697 76.209 38.1904C75.3419 37.6109 74.666 36.7875 74.2669 35.824C73.8677 34.8604 73.7633 33.8003 73.9668 32.7774C74.1702 31.7545 74.6725 30.8149 75.4099 30.0775C76.1473 29.34 77.0869 28.8378 78.1098 28.6344C79.1326 28.4309 80.1928 28.5354 81.1563 28.9344C82.1198 29.3336 82.9434 30.0093 83.5227 30.8765C84.1022 31.7437 84.4113 32.7632 84.4113 33.8061C84.4139 34.5001 84.2795 35.188 84.0156 35.83C83.7518 36.4721 83.3638 37.0557 82.874 37.5474C82.3841 38.0392 81.802 38.4293 81.161 38.6955C80.5198 38.9617 79.8325 39.0989 79.1384 39.0989V39.079Z" fill="black"/>
<path d="M79.1371 30.8008C78.5398 30.7994 77.9556 30.9753 77.4583 31.3063C76.9609 31.6372 76.5731 32.1082 76.3436 32.6597C76.1141 33.2112 76.0532 33.8183 76.169 34.4043C76.2848 34.9904 76.5718 35.5289 76.9937 35.9518C77.4156 36.3746 77.9536 36.6627 78.5393 36.7797C79.1251 36.8967 79.7323 36.8374 80.2843 36.6091C80.8364 36.3808 81.3082 35.9938 81.6402 35.4973C81.9722 35.0007 82.1493 34.4168 82.1494 33.8195C82.1494 33.0201 81.8322 32.2531 81.2675 31.6872C80.7028 31.1213 79.9366 30.8025 79.1371 30.8008ZM79.1371 35.2959C78.8451 35.2959 78.5597 35.2093 78.3169 35.0471C78.0741 34.8848 77.8849 34.6543 77.7731 34.3845C77.6615 34.1147 77.6323 33.8179 77.6892 33.5314C77.7461 33.245 77.8868 32.982 78.0932 32.7754C78.2998 32.569 78.5627 32.4283 78.8491 32.3714C79.1355 32.3144 79.4325 32.3437 79.7022 32.4555C79.9721 32.5672 80.2025 32.7565 80.3647 32.9993C80.527 33.2421 80.6135 33.5275 80.6135 33.8195C80.6135 34.2111 80.458 34.5866 80.1811 34.8635C79.9042 35.1404 79.5287 35.2959 79.1371 35.2959Z" fill="black"/>
<path d="M95.5173 26.4766C94.0687 26.4753 92.6523 26.9036 91.4472 27.7076C90.2421 28.5114 89.3024 29.6546 88.7471 30.9926C88.1919 32.3305 88.046 33.8031 88.3278 35.2241C88.6096 36.645 89.3066 37.9503 90.3304 38.9751C91.3543 39.9999 92.6589 40.698 94.0797 40.981C95.5003 41.2642 96.973 41.1195 98.3114 40.5655C99.6499 40.0114 100.794 39.0728 101.599 37.8685C102.404 36.6642 102.834 35.2481 102.834 33.7995C102.832 31.859 102.061 29.9984 100.689 28.6257C99.3177 27.2529 97.4577 26.4801 95.5173 26.4766ZM95.5173 39.079C94.4744 39.079 93.4549 38.7697 92.5878 38.1904C91.7207 37.6109 91.0448 36.7875 90.6456 35.824C90.2465 34.8604 90.1422 33.8003 90.3457 32.7774C90.5492 31.7545 91.0514 30.8149 91.7889 30.0775C92.5262 29.34 93.4657 28.8378 94.4886 28.6344C95.5114 28.4309 96.5718 28.5354 97.5352 28.9344C98.4987 29.3336 99.3223 30.0093 99.9017 30.8765C100.481 31.7437 100.79 32.7632 100.79 33.8061C100.793 34.5001 100.658 35.188 100.395 35.83C100.131 36.4721 99.7428 37.0557 99.2529 37.5474C98.7629 38.0392 98.1808 38.4293 97.5398 38.6955C96.8986 38.9617 96.2114 39.0989 95.5173 39.0989V39.079Z" fill="black"/>
<path d="M95.5161 30.8008C94.919 30.8008 94.3355 30.9778 93.839 31.3094C93.3426 31.6412 92.9555 32.1126 92.727 32.6642C92.4985 33.2158 92.4389 33.8229 92.5553 34.4084C92.6718 34.994 92.9594 35.5319 93.3815 35.9541C93.8036 36.3763 94.3415 36.6637 94.9271 36.7802C95.5127 36.8967 96.1197 36.837 96.6713 36.6085C97.2229 36.38 97.6944 35.993 98.0261 35.4966C98.3578 35.0003 98.535 34.4165 98.535 33.8194C98.535 33.0189 98.2168 32.251 97.6507 31.6849C97.0845 31.1188 96.3167 30.8008 95.5161 30.8008ZM95.5161 35.2959C95.2241 35.2959 94.9387 35.2093 94.6959 35.0471C94.4531 34.8848 94.2638 34.6543 94.152 34.3845C94.0402 34.1147 94.011 33.8179 94.068 33.5314C94.1249 33.245 94.2656 32.982 94.472 32.7754C94.6785 32.569 94.9416 32.4283 95.228 32.3714C95.5145 32.3144 95.8112 32.3437 96.0811 32.4555C96.3508 32.5672 96.5814 32.7565 96.7437 32.9993C96.9059 33.242 96.9925 33.5275 96.9925 33.8194C96.9925 34.2111 96.837 34.5866 96.5601 34.8635C96.2832 35.1403 95.9077 35.2959 95.5161 35.2959Z" fill="black"/>
<path d="M108.317 27.7956L108.258 27.6374C107.615 25.8917 106.755 24.2333 105.7 22.7006C105.373 22.957 105.02 23.178 104.646 23.3597C104.053 23.6163 103.424 23.7765 102.781 23.8342L102.583 23.6827C103.103 23.5292 103.593 23.2885 104.033 22.9709L104.086 22.9312L104.237 22.8258L104.402 22.6874L104.468 22.6347C104.56 22.549 104.653 22.4633 104.738 22.371C104.824 22.2787 104.995 22.081 105.114 21.9228C106.432 20.0378 106.261 17.8758 105.608 15.9908C104.791 17.0651 103.631 18.0274 102.102 17.7703C101.113 17.6056 99.8805 16.7816 98.1471 15.8721C95.5625 14.4446 92.7187 13.5481 89.7827 13.2356L89.3543 13.1894H88.9061C88.5766 13.1894 88.247 13.1433 87.8713 13.1367H87.0936C83.1828 13.1764 79.3519 14.2472 75.9875 16.2412C74.5704 17.0124 73.5157 17.6715 72.639 17.8165C71.1032 18.0736 69.9564 17.1112 69.139 16.0369C68.48 17.9088 68.2887 20.0443 69.6004 21.9228C69.8473 22.2804 70.1475 22.5983 70.4903 22.8653C70.9858 23.252 71.5491 23.5426 72.1514 23.7222L71.947 23.8739C71.3039 23.8161 70.6741 23.6559 70.0816 23.3992C69.7049 23.2189 69.3491 22.9978 69.0204 22.7401C67.9588 24.273 67.0951 25.934 66.4498 27.6836V27.756C66.3311 28.0723 66.2257 28.4152 66.1269 28.725L56.24 58.0822C56.24 58.0822 57.031 58.326 58.257 58.5897C58.7091 58.6911 59.1825 58.6305 59.5945 58.4185C60.0065 58.2065 60.3309 57.8565 60.5112 57.4297L61.5196 55.0634L61.4538 57.2121C61.4441 57.4719 61.4855 57.731 61.5761 57.9746C61.6666 58.2182 61.8043 58.4416 61.9812 58.632C62.1581 58.8223 62.3709 58.976 62.6073 59.0842C62.8436 59.1922 63.0989 59.2527 63.3586 59.262H63.3981C63.8902 59.2848 64.3731 59.1232 64.7523 58.8087C65.1315 58.4941 65.3796 58.0494 65.4481 57.5615L65.7776 55.3535L66.6015 57.3309C67.03 58.3657 68.8491 58.8533 70.3651 58.2404C71.8811 57.6274 72.5204 56.4081 72.1645 55.1557C72.0855 54.8592 71.7294 53.1783 71.235 50.8319C73.6889 53.4203 76.7296 55.3803 80.1004 56.5465C80.1004 56.5465 81.0428 56.8695 81.4186 56.9617L81.9523 57.0869H82.0645C82.6841 57.2385 83.3167 57.3638 83.9561 57.4627C84.089 58.1316 84.3986 58.753 84.8526 59.262V61.3844C84.8526 61.5855 84.7726 61.7783 84.6305 61.9204C84.4884 62.0625 84.2955 62.1424 84.0944 62.1424H81.7284C81.5267 62.1441 81.3338 62.2255 81.1919 62.3686C81.0499 62.5119 80.9702 62.7054 80.9702 62.907C80.9702 63.108 81.0502 63.3008 81.1924 63.443C81.3345 63.5851 81.5273 63.665 81.7284 63.665H85.6171C85.7169 63.6659 85.8158 63.6469 85.9082 63.6091C86.0006 63.5713 86.0845 63.5156 86.1551 63.445C86.2257 63.3745 86.2814 63.2905 86.3192 63.1981C86.357 63.1058 86.3761 63.0068 86.3752 62.907V59.1369C86.7132 58.7262 86.9581 58.2473 87.0936 57.733H87.7131C87.847 58.2498 88.0921 58.7312 88.4315 59.1435V62.9136C88.4307 63.0134 88.4496 63.1123 88.4874 63.2047C88.5251 63.2971 88.5811 63.381 88.6517 63.4516C88.7223 63.5222 88.806 63.5779 88.8984 63.6157C88.9907 63.6535 89.0897 63.6725 89.1894 63.6717H93.0784C93.2794 63.6717 93.4723 63.5917 93.6144 63.4496C93.7566 63.3074 93.8363 63.1146 93.8363 62.9136C93.8363 62.712 93.7567 62.5185 93.6148 62.3753C93.4728 62.232 93.2801 62.1507 93.0784 62.149H90.7121C90.5105 62.149 90.3171 62.0693 90.1738 61.9274C90.0307 61.7854 89.9493 61.5926 89.9476 61.3911V59.2686C90.4123 58.7608 90.7251 58.1329 90.8505 57.4561L91.5756 57.3505H91.6942L92.8213 57.0869H92.9466C93.3289 56.9947 93.7309 56.8892 94.0077 56.8036L94.3834 56.7112L94.4428 56.6652C97.3022 55.7098 99.9372 54.1826 102.187 52.1765L102.267 52.104C102.55 51.847 102.833 51.5834 103.11 51.3131L103.249 51.1746L103.545 50.878L103.585 50.8385C103.09 53.2244 102.728 54.8921 102.649 55.1888C102.293 56.441 102.939 57.6604 104.455 58.2733C105.971 58.8864 107.783 58.3986 108.218 57.3638L109.036 55.3864L109.365 57.5945C109.434 58.0823 109.682 58.5271 110.061 58.8416C110.44 59.1562 110.923 59.3179 111.415 59.2951H111.455C111.714 59.2856 111.97 59.2252 112.206 59.117C112.442 59.009 112.655 58.8554 112.832 58.6649C113.009 58.4745 113.147 58.2512 113.237 58.0076C113.328 57.7639 113.369 57.5049 113.36 57.2452L113.294 55.0964L114.302 57.4627C114.483 57.8895 114.806 58.2395 115.219 58.4515C115.631 58.6635 116.104 58.7241 116.556 58.6227C117.789 58.3591 118.58 58.1152 118.58 58.1152L108.66 28.7381C108.541 28.336 108.416 28.0527 108.317 27.7956ZM87.5747 49.6981H87.0737C87.0737 49.6981 70.4573 45.605 70.4573 33.8793C70.4248 32.7482 70.6186 31.6219 71.0272 30.5668C71.4359 29.5115 72.0513 28.5486 72.8371 27.7346C73.623 26.9204 74.5637 26.2714 75.6038 25.8258C76.644 25.3801 77.7625 25.1467 78.8941 25.1393C80.5 25.1362 82.087 25.4852 83.5435 26.1617C85 26.838 86.2906 27.8256 87.3243 29.0546C88.3596 27.8257 89.6513 26.8384 91.1088 26.162C92.5662 25.4856 94.1542 25.1366 95.7611 25.1393C96.8923 25.1467 98.0106 25.3802 99.0504 25.8259C100.09 26.2716 101.03 26.9207 101.816 27.7349C102.601 28.5492 103.216 29.5122 103.624 30.5674C104.032 31.6225 104.224 32.7484 104.191 33.8793C104.191 45.5918 87.5747 49.6653 87.5747 49.6653V49.6981Z" fill="black"/>
<path d="M88.5956 0H86.5392V8.15993H88.5956V0Z" fill="black"/>
<path d="M71.1668 4.16406L69.3857 5.19232L73.4657 12.259L75.2467 11.2308L71.1668 4.16406Z" fill="black"/>
<path d="M57.6989 16.7061L56.6705 18.4871L63.7372 22.5671L64.7656 20.786L57.6989 16.7061Z" fill="black"/>
<path d="M103.394 3.8252L99.3142 10.892L101.095 11.9202L105.175 4.85343L103.394 3.8252Z" fill="black"/>
<path d="M117.004 16.9717L109.937 21.0516L110.965 22.8326L118.032 18.7527L117.004 16.9717Z" fill="black"/>
</g>
<defs>
<clipPath id="clip0_1_197">
<rect width="175" height="63.625" fill="white"/>
</clipPath>
</defs>
</svg>
