<svg width="40" height="40" viewBox="0 0 40 40" fill="none" xmlns="http://www.w3.org/2000/svg">
<path fill-rule="evenodd" clip-rule="evenodd" d="M20.5507 7.54423C20.9031 7.19576 21.3809 7 21.8791 7C22.3774 7 22.8552 7.19576 23.2075 7.54423L34.4811 18.697C34.8334 19.0456 35.0312 19.5183 35.0312 20.0112C35.0312 20.5041 34.8334 20.9768 34.4811 21.3254L23.2075 32.4782C22.8532 32.8168 22.3785 33.0042 21.8859 32.9999C21.3932 32.9957 20.922 32.8002 20.5736 32.4556C20.2252 32.1109 20.0276 31.6447 20.0234 31.1573C20.0191 30.67 20.2085 30.2004 20.5507 29.8499L28.617 21.87L6.84768 21.87C6.34936 21.87 5.87144 21.6742 5.51907 21.3256C5.16671 20.977 4.96875 20.5042 4.96875 20.0112C4.96875 19.5182 5.16671 19.0454 5.51907 18.6968C5.87144 18.3483 6.34936 18.1524 6.84768 18.1524L28.617 18.1524L20.5507 10.1726C20.1985 9.824 20.0006 9.35129 20.0006 8.85841C20.0006 8.36552 20.1985 7.89281 20.5507 7.54423Z" fill="black"/>
</svg>
