<svg width="40" height="40" viewBox="0 0 40 40" fill="none" xmlns="http://www.w3.org/2000/svg">
<path fill-rule="evenodd" clip-rule="evenodd" d="M20 8C21.2825 8 22.598 8.033 23.873 8.087L25.379 8.159L26.8205 8.2445L28.1705 8.336L29.4035 8.432C30.7418 8.53384 32.0012 9.10465 32.9599 10.0439C33.9187 10.9832 34.5152 12.2306 34.6445 13.5665L34.7045 14.204L34.817 15.569C34.922 16.9835 35 18.5255 35 20C35 21.4745 34.922 23.0165 34.817 24.431L34.7045 25.796L34.6445 26.4335C34.5152 27.7696 33.9184 29.0173 32.9594 29.9566C32.0003 30.8958 30.7405 31.4665 29.402 31.568L28.172 31.6625L26.822 31.7555L25.379 31.841L23.873 31.913C22.5827 31.9689 21.2915 31.9979 20 32C18.7085 31.9979 17.4173 31.9689 16.127 31.913L14.621 31.841L13.1795 31.7555L11.8295 31.6625L10.5965 31.568C9.25822 31.4662 7.9988 30.8953 7.04007 29.9561C6.08133 29.0168 5.48479 27.7694 5.3555 26.4335L5.2955 25.796L5.183 24.431C5.06875 22.9567 5.00771 21.4787 5 20C5 18.5255 5.078 16.9835 5.183 15.569L5.2955 14.204L5.3555 13.5665C5.48474 12.2308 6.08107 10.9836 7.03949 10.0444C7.99792 9.10514 9.25699 8.53417 10.595 8.432L11.8265 8.336L13.1765 8.2445L14.6195 8.159L16.1255 8.087C17.4163 8.03109 18.708 8.00208 20 8ZM17 16.3625V23.6375C17 24.3305 17.75 24.7625 18.35 24.4175L24.65 20.78C24.7871 20.7011 24.901 20.5874 24.9801 20.4505C25.0593 20.3136 25.101 20.1582 25.101 20C25.101 19.8418 25.0593 19.6864 24.9801 19.5495C24.901 19.4126 24.7871 19.2989 24.65 19.22L18.35 15.584C18.2131 15.505 18.0579 15.4634 17.8999 15.4634C17.7418 15.4634 17.5866 15.5051 17.4497 15.5841C17.3129 15.6632 17.1993 15.7769 17.1204 15.9138C17.0414 16.0507 16.9999 16.206 17 16.364V16.3625Z" fill="black"/>
</svg>
