<svg width="38" height="40" viewBox="0 0 38 40" fill="none" xmlns="http://www.w3.org/2000/svg">
<path fill-rule="evenodd" clip-rule="evenodd" d="M14.0641 6.59022C14.4897 5.68253 15.4078 5.05176 16.4688 5.05176H22.5488C23.6097 5.05176 24.5263 5.68253 24.9534 6.59022C25.9916 6.59945 26.8017 6.64714 27.5252 6.9333C28.3889 7.27525 29.1401 7.85639 29.6928 8.61022C30.2506 9.37022 30.5136 10.3441 30.8723 11.6841L32.0001 15.8718L32.4257 17.1656L32.4622 17.2118C33.8317 18.9871 33.1796 21.6271 31.8755 26.9056C31.0456 30.2641 30.6321 31.9425 29.3948 32.921C28.1576 33.8979 26.4476 33.8979 23.0276 33.8979H15.99C12.57 33.8979 10.86 33.8979 9.62267 32.921C8.38539 31.9425 7.97043 30.2641 7.14203 26.9056C5.83787 21.6271 5.18579 18.9871 6.55531 17.2118L6.59179 17.1656L7.01739 15.8718L8.14523 11.6841C8.50547 10.3441 8.76843 9.36868 9.32475 8.60868C9.87762 7.85542 10.6288 7.27483 11.4923 6.9333C12.2158 6.64714 13.0244 6.59791 14.0641 6.59022ZM14.0672 8.90253C13.0609 8.9133 12.6566 8.95176 12.3222 9.08407C11.857 9.26819 11.4525 9.58116 11.1548 9.98714C10.8873 10.3518 10.7292 10.861 10.2884 12.5025L9.42203 15.7164C10.9724 15.4364 13.0913 15.4364 15.9884 15.4364H23.0276C25.9262 15.4364 28.0436 15.4364 29.594 15.7133L28.7291 12.4995C28.2883 10.8579 28.1302 10.3487 27.8627 9.98407C27.565 9.57808 27.1605 9.26511 26.6953 9.08099C26.3609 8.94868 25.9566 8.91022 24.9504 8.89945C24.7345 9.35921 24.3944 9.74764 23.9693 10.0197C23.5442 10.2917 23.0517 10.4362 22.5488 10.4364H16.4688C15.966 10.4363 15.4736 10.2921 15.0485 10.0203C14.6235 9.74857 14.2832 9.362 14.0672 8.90253Z" fill="black"/>
</svg>
