<svg width="40" height="40" viewBox="0 0 40 40" fill="none" xmlns="http://www.w3.org/2000/svg">
<g clip-path="url(#clip0_1_25)">
<path d="M18.6609 8.87616C19.1723 7.70795 20.8306 7.70795 21.3406 8.87616L23.9004 14.7494C24.0065 14.9924 24.1768 15.2019 24.3931 15.3555C24.6093 15.509 24.8632 15.6009 25.1277 15.6212L31.6486 16.1206C32.9636 16.2213 33.4823 17.8729 32.461 18.7067L27.5955 22.683C27.3812 22.8583 27.2212 23.0908 27.134 23.3535C27.0468 23.6161 27.0361 23.8982 27.1031 24.1667L28.6081 30.1816C28.9208 31.4345 27.5707 32.4479 26.4544 31.7966L20.7371 28.4657C20.5136 28.3354 20.2595 28.2667 20.0007 28.2667C19.742 28.2667 19.4878 28.3354 19.2643 28.4657L13.5471 31.7966C12.4308 32.4479 11.0807 31.4345 11.3934 30.1816L12.8983 24.1667C12.9647 23.8981 12.9534 23.6162 12.8657 23.3538C12.778 23.0914 12.6176 22.8593 12.403 22.6845L7.53755 18.7082C6.51771 17.8744 7.03786 16.2228 8.35139 16.122L14.8708 15.6226C15.1353 15.6023 15.3893 15.5105 15.6055 15.3569C15.8217 15.2033 15.992 14.9938 16.0981 14.7508L18.6609 8.87616Z" stroke="black" stroke-width="2"/>
</g>
<defs>
<clipPath id="clip0_1_25">
<rect width="40" height="40" fill="white"/>
</clipPath>
</defs>
</svg>
