<svg width="40" height="40" viewBox="0 0 40 40" fill="none" xmlns="http://www.w3.org/2000/svg">
<path d="M32.8165 5.67563C32.8062 5.66541 32.796 5.64496 32.7858 5.6245C32.7755 5.60405 32.755 5.60405 32.7346 5.59382C29.2576 2.13731 24.4819 0 19.2051 0C8.61061 0 0 8.61061 0 19.2051C0 24.4819 2.13731 29.2576 5.59382 32.7346C5.60405 32.7448 5.61427 32.7653 5.6245 32.7858C5.63472 32.796 5.65518 32.8062 5.67563 32.8165C9.15259 36.273 13.9283 38.4102 19.2051 38.4102C29.7894 38.4102 38.4102 29.7997 38.4102 19.2051C38.4102 13.9283 36.2627 9.14237 32.8165 5.67563ZM19.2051 2.04528C23.5718 2.04528 27.5395 3.69171 30.5768 6.39147L6.39147 30.5666C3.69171 27.5397 2.04528 23.5616 2.04528 19.2051C2.04528 9.74573 9.74573 2.04528 19.2051 2.04528ZM19.2051 36.3547C14.8385 36.3547 10.8706 34.7083 7.83339 32.0085L32.0187 7.83339C34.7083 10.8604 36.365 14.8385 36.365 19.2051C36.365 28.6645 28.6645 36.3547 19.2051 36.3547Z" fill="black"/>
</svg>
